  0
SECTION
  2
HEADER
  9
$ACADVER
  1
AC1024
  9
$ACADMAINTVER
 70
     6
  9
$DWGCODEPAGE
  3
UNDEFINED
  9
$INSBASE
 10
0.0
 20
0.0
 30
0.0
  9
$EXTMIN
 10
1.000000000000000E+20
 20
1.000000000000000E+20
 30
1.000000000000000E+20
  9
$EXTMAX
 10
-1.000000000000000E+20
 20
-1.000000000000000E+20
 30
-1.000000000000000E+20
  9
$LIMMIN
 10
0.0
 20
0.0
  9
$LIMMAX
 10
12.0
 20
9.0
  9
$ORTHOMODE
 70
     0
  9
$REGENMODE
 70
     1
  9
$FILLMODE
 70
     1
  9
$QTEXTMODE
 70
     0
  9
$MIRRTEXT
 70
     1
  9
$LTSCALE
 40
1.0
  9
$ATTMODE
 70
     1
  9
$TEXTSIZE
 40
0.2
  9
$TRACEWID
 40
0.05
  9
$TEXTSTYLE
  7
Standard
  9
$CLAYER
  8
0
  9
$CELTYPE
  6
ByLayer
  9
$CECOLOR
 62
   256
  9
$CELTSCALE
 40
1.0
  9
$DISPSILH
 70
     0
  9
$DIMSCALE
 40
1.0
  9
$DIMASZ
 40
0.18
  9
$DIMEXO
 40
0.0625
  9
$DIMDLI
 40
0.38
  9
$DIMRND
 40
0.0
  9
$DIMDLE
 40
0.0
  9
$DIMEXE
 40
0.18
  9
$DIMTP
 40
0.0
  9
$DIMTM
 40
0.0
  9
$DIMTXT
 40
0.18
  9
$DIMCEN
 40
0.09
  9
$DIMTSZ
 40
0.0
  9
$DIMTOL
 70
     0
  9
$DIMLIM
 70
     0
  9
$DIMTIH
 70
     1
  9
$DIMTOH
 70
     1
  9
$DIMSE1
 70
     0
  9
$DIMSE2
 70
     0
  9
$DIMTAD
 70
     0
  9
$DIMZIN
 70
     0
  9
$DIMBLK
  1

  9
$DIMASO
 70
     1
  9
$DIMSHO
 70
     1
  9
$DIMPOST
  1

  9
$DIMAPOST
  1

  9
$DIMALT
 70
     0
  9
$DIMALTD
 70
     2
  9
$DIMALTF
 40
25.4
  9
$DIMLFAC
 40
1.0
  9
$DIMTOFL
 70
     0
  9
$DIMTVP
 40
0.0
  9
$DIMTIX
 70
     0
  9
$DIMSOXD
 70
     0
  9
$DIMSAH
 70
     0
  9
$DIMBLK1
  1

  9
$DIMBLK2
  1

  9
$DIMSTYLE
  2
Standard
  9
$DIMCLRD
 70
     0
  9
$DIMCLRE
 70
     0
  9
$DIMCLRT
 70
     0
  9
$DIMTFAC
 40
1.0
  9
$DIMGAP
 40
0.09
  9
$DIMJUST
 70
     0
  9
$DIMSD1
 70
     0
  9
$DIMSD2
 70
     0
  9
$DIMTOLJ
 70
     1
  9
$DIMTZIN
 70
     0
  9
$DIMALTZ
 70
     0
  9
$DIMALTTZ
 70
     0
  9
$DIMUPT
 70
     0
  9
$DIMDEC
 70
     4
  9
$DIMTDEC
 70
     4
  9
$DIMALTU
 70
     2
  9
$DIMALTTD
 70
     2
  9
$DIMTXSTY
  7
Standard
  9
$DIMAUNIT
 70
     0
  9
$DIMADEC
 70
     0
  9
$DIMALTRND
 40
0.0
  9
$DIMAZIN
 70
     0
  9
$DIMDSEP
 70
    46
  9
$DIMATFIT
 70
     3
  9
$DIMFRAC
 70
     0
  9
$DIMLDRBLK
  1

  9
$DIMLUNIT
 70
     2
  9
$DIMLWD
 70
    -2
  9
$DIMLWE
 70
    -2
  9
$DIMTMOVE
 70
     0
  9
$DIMFXL
 40
1.0
  9
$DIMFXLON
 70
     0
  9
$DIMJOGANG
 40
0.7853981633974483
  9
$DIMTFILL
 70
     0
  9
$DIMTFILLCLR
 70
     0
  9
$DIMARCSYM
 70
     0
  9
$DIMLTYPE
  6

  9
$DIMLTEX1
  6

  9
$DIMLTEX2
  6

  9
$DIMTXTDIRECTION
 70
     0
  9
$LUNITS
 70
     2
  9
$LUPREC
 70
     4
  9
$SKETCHINC
 40
0.1
  9
$FILLETRAD
 40
0.5
  9
$AUNITS
 70
     0
  9
$AUPREC
 70
     0
  9
$MENU
  1
.
  9
$ELEVATION
 40
0.0
  9
$PELEVATION
 40
0.0
  9
$THICKNESS
 40
0.0
  9
$LIMCHECK
 70
     0
  9
$CHAMFERA
 40
0.5
  9
$CHAMFERB
 40
0.5
  9
$CHAMFERC
 40
1.0
  9
$CHAMFERD
 40
0.0
  9
$SKPOLY
 70
     0
  9
$TDCREATE
 40
2457728.513935173
  9
$TDUCREATE
 40
2457728.472268519
  9
$TDUPDATE
 40
2457728.513935173
  9
$TDUUPDATE
 40
2457728.472268519
  9
$TDINDWG
 40
0.0000000116
  9
$TDUSRTIMER
 40
0.0000000116
  9
$USRTIMER
 70
     1
  9
$ANGBASE
 50
0.0
  9
$ANGDIR
 70
     0
  9
$PDMODE
 70
     0
  9
$PDSIZE
 40
0.0
  9
$PLINEWID
 40
0.0
  9
$SPLFRAME
 70
     0
  9
$SPLINETYPE
 70
     6
  9
$SPLINESEGS
 70
     8
  9
$HANDSEED
  5
AD
  9
$SURFTAB1
 70
     6
  9
$SURFTAB2
 70
     6
  9
$SURFTYPE
 70
     6
  9
$SURFU
 70
     6
  9
$SURFV
 70
     6
  9
$UCSBASE
  2

  9
$UCSNAME
  2

  9
$UCSORG
 10
0.0
 20
0.0
 30
0.0
  9
$UCSXDIR
 10
1.0
 20
0.0
 30
0.0
  9
$UCSYDIR
 10
0.0
 20
1.0
 30
0.0
  9
$UCSORTHOREF
  2

  9
$UCSORTHOVIEW
 70
     0
  9
$UCSORGTOP
 10
0.0
 20
0.0
 30
0.0
  9
$UCSORGBOTTOM
 10
0.0
 20
0.0
 30
0.0
  9
$UCSORGLEFT
 10
0.0
 20
0.0
 30
0.0
  9
$UCSORGRIGHT
 10
0.0
 20
0.0
 30
0.0
  9
$UCSORGFRONT
 10
0.0
 20
0.0
 30
0.0
  9
$UCSORGBACK
 10
0.0
 20
0.0
 30
0.0
  9
$PUCSBASE
  2

  9
$PUCSNAME
  2

  9
$PUCSORG
 10
0.0
 20
0.0
 30
0.0
  9
$PUCSXDIR
 10
1.0
 20
0.0
 30
0.0
  9
$PUCSYDIR
 10
0.0
 20
1.0
 30
0.0
  9
$PUCSORTHOREF
  2

  9
$PUCSORTHOVIEW
 70
     0
  9
$PUCSORGTOP
 10
0.0
 20
0.0
 30
0.0
  9
$PUCSORGBOTTOM
 10
0.0
 20
0.0
 30
0.0
  9
$PUCSORGLEFT
 10
0.0
 20
0.0
 30
0.0
  9
$PUCSORGRIGHT
 10
0.0
 20
0.0
 30
0.0
  9
$PUCSORGFRONT
 10
0.0
 20
0.0
 30
0.0
  9
$PUCSORGBACK
 10
0.0
 20
0.0
 30
0.0
  9
$USERI1
 70
     0
  9
$USERI2
 70
     0
  9
$USERI3
 70
     0
  9
$USERI4
 70
     0
  9
$USERI5
 70
     0
  9
$USERR1
 40
0.0
  9
$USERR2
 40
0.0
  9
$USERR3
 40
0.0
  9
$USERR4
 40
0.0
  9
$USERR5
 40
0.0
  9
$WORLDVIEW
 70
     1
  9
$SHADEDGE
 70
     3
  9
$SHADEDIF
 70
    70
  9
$TILEMODE
 70
     1
  9
$MAXACTVP
 70
    64
  9
$PINSBASE
 10
0.0
 20
0.0
 30
0.0
  9
$PLIMCHECK
 70
     0
  9
$PEXTMIN
 10
1.000000000000000E+20
 20
1.000000000000000E+20
 30
1.000000000000000E+20
  9
$PEXTMAX
 10
-1.000000000000000E+20
 20
-1.000000000000000E+20
 30
-1.000000000000000E+20
  9
$PLIMMIN
 10
0.0
 20
0.0
  9
$PLIMMAX
 10
12.0
 20
9.0
  9
$UNITMODE
 70
     0
  9
$VISRETAIN
 70
     1
  9
$PLINEGEN
 70
     0
  9
$PSLTSCALE
 70
     1
  9
$TREEDEPTH
 70
  3020
  9
$CMLSTYLE
  2
Standard
  9
$CMLJUST
 70
     0
  9
$CMLSCALE
 40
1.0
  9
$PROXYGRAPHICS
 70
     1
  9
$MEASUREMENT
 70
     0
  9
$CELWEIGHT
370
    -1
  9
$ENDCAPS
280
     0
  9
$JOINSTYLE
280
     0
  9
$LWDISPLAY
290
     1
  9
$INSUNITS
 70
     1
  9
$HYPERLINKBASE
  1

  9
$STYLESHEET
  1

  9
$XEDIT
290
     1
  9
$CEPSNTYPE
380
     0
  9
$PSTYLEMODE
290
     1
  9
$FINGERPRINTGUID
  2
{4717AB9A-4AB4-498E-1DDF-9BF141E6A7AC}
  9
$VERSIONGUID
  2
{FAEB1C32-E019-11D5-929B-00C0DF256EC4}
  9
$EXTNAMES
290
     1
  9
$PSVPSCALE
 40
0.0
  9
$OLESTARTUP
290
     0
  9
$SORTENTS
280
   127
  9
$INDEXCTL
280
     0
  9
$HIDETEXT
280
     1
  9
$XCLIPFRAME
280
     2
  9
$HALOGAP
280
     0
  9
$OBSCOLOR
 70
   257
  9
$OBSLTYPE
280
     0
  9
$INTERSECTIONDISPLAY
280
     0
  9
$INTERSECTIONCOLOR
 70
   257
  9
$DIMASSOC
280
     2
  9
$PROJECTNAME
  1

  9
$CAMERADISPLAY
290
     0
  9
$LENSLENGTH
 40
50.0
  9
$CAMERAHEIGHT
 40
0.0
  9
$STEPSPERSEC
 40
2.0
  9
$STEPSIZE
 40
6.0
  9
$3DDWFPREC
 40
2.0
  9
$PSOLWIDTH
 40
0.25
  9
$PSOLHEIGHT
 40
4.0
  9
$LOFTANG1
 40
1.570796326794897
  9
$LOFTANG2
 40
1.570796326794897
  9
$LOFTMAG1
 40
0.0
  9
$LOFTMAG2
 40
0.0
  9
$LOFTPARAM
 70
     7
  9
$LOFTNORMALS
280
     1
  9
$LATITUDE
 40
37.795
  9
$LONGITUDE
 40
-122.394
  9
$NORTHDIRECTION
 40
0.0
  9
$TIMEZONE
 70
 -8000
  9
$LIGHTGLYPHDISPLAY
280
     1
  9
$TILEMODELIGHTSYNCH
280
     1
  9
$CMATERIAL
347
3C
  9
$SOLIDHIST
280
     1
  9
$SHOWHIST
280
     1
  9
$DWFFRAME
280
     2
  9
$DGNFRAME
280
     2
  9
$REALWORLDSCALE
290
     1
  9
$INTERFERECOLOR
 62
   256
  9
$CSHADOW
280
     0
  9
$SHADOWPLANELOCATION
 40
0.0
  0
ENDSEC
  0
SECTION
  2
CLASSES
  0
CLASS
  1
ACDBDICTIONARYWDFLT
  2
AcDbDictionaryWithDefault
  3
ObjectDBX Classes
 90
        0
 91
        4
280
     0
281
     0
  0
CLASS
  1
VISUALSTYLE
  2
AcDbVisualStyle
  3
ObjectDBX Classes
 90
     4095
 91
        4
280
     0
281
     0
  0
CLASS
  1
MATERIAL
  2
AcDbMaterial
  3
ObjectDBX Classes
 90
     1153
 91
        4
280
     0
281
     0
  0
CLASS
  1
SUN
  2
AcDbSun
  3
SCENEOE
 90
     1024
 91
        4
280
     0
281
     0
  0
ENDSEC
  0
SECTION
  2
TABLES
  0
TABLE
  2
VPORT
  5
8
330
0
100
AcDbSymbolTable
 70
     1
  0
VPORT
  5
29
330
8
100
AcDbSymbolTableRecord
100
AcDbViewportTableRecord
  2
*Active
 70
     0
 10
0.0
 20
0.0
 11
1.0
 21
1.0
 12
0.0
 22
0.0
 13
0.0
 23
0.0
 14
0.5
 24
0.5
 15
0.5
 25
0.5
 16
0.0
 26
0.0
 36
1.0
 17
117.1222221929411
 27
-98.60138886423806
 37
0.0
 40
599.9999998499993
 41
1.500000000000001
 42
50.0
 43
0.0
 44
0.0
 50
0.0
 51
0.0
 71
     0
 72
   100
 73
     1
 74
     3
 75
     0
 76
     0
 77
     0
 78
     0
281
     0
 65
     1
110
0.0
120
0.0
130
0.0
111
1.0
121
0.0
131
0.0
112
0.0
122
1.0
132
0.0
 79
     0
146
0.0
 60
     3
 61
     5
292
     1
282
     1
141
0.0
142
0.0
 63
   250
361
3F
  0
ENDTAB
  0
TABLE
  2
LTYPE
  5
5
330
0
100
AcDbSymbolTable
 70
     1
  0
LTYPE
  5
14
330
5
100
AcDbSymbolTableRecord
100
AcDbLinetypeTableRecord
  2
ByBlock
 70
     0
  3

 72
    65
 73
     0
 40
0.0
  0
LTYPE
  5
15
330
5
100
AcDbSymbolTableRecord
100
AcDbLinetypeTableRecord
  2
ByLayer
 70
     0
  3

 72
    65
 73
     0
 40
0.0
  0
LTYPE
  5
16
330
5
100
AcDbSymbolTableRecord
100
AcDbLinetypeTableRecord
  2
Continuous
 70
     0
  3
Solid line
 72
    65
 73
     0
 40
0.0
  0
ENDTAB
  0
TABLE
  2
LAYER
  5
2
330
0
100
AcDbSymbolTable
 70
     3
  0
LAYER
  5
10
330
2
100
AcDbSymbolTableRecord
100
AcDbLayerTableRecord
  2
0
 70
     0
 62
     7
  6
Continuous
370
    -3
390
F
347
3E
  0
LAYER
  5
40
330
2
100
AcDbSymbolTableRecord
100
AcDbLayerTableRecord
  2
cut
 70
     0
 62
     7
  6
Continuous
370
    -3
390
F
347
3E
  0
LAYER
  5
A7
330
2
100
AcDbSymbolTableRecord
100
AcDbLayerTableRecord
  2
description
 70
     0
 62
     7
  6
Continuous
370
    -3
390
F
347
3E
  0
ENDTAB
  0
TABLE
  2
STYLE
  5
3
330
0
100
AcDbSymbolTable
 70
     1
  0
STYLE
  5
11
330
3
100
AcDbSymbolTableRecord
100
AcDbTextStyleTableRecord
  2
Standard
 70
     0
 40
0.0
 41
1.0
 50
0.0
 71
     0
 42
0.2
  3
txt
  4

  0
ENDTAB
  0
TABLE
  2
VIEW
  5
6
330
0
100
AcDbSymbolTable
 70
     0
  0
ENDTAB
  0
TABLE
  2
UCS
  5
7
330
0
100
AcDbSymbolTable
 70
     0
  0
ENDTAB
  0
TABLE
  2
APPID
  5
9
330
0
100
AcDbSymbolTable
 70
     1
  0
APPID
  5
12
330
9
100
AcDbSymbolTableRecord
100
AcDbRegAppTableRecord
  2
ACAD
 70
     0
  0
ENDTAB
  0
TABLE
  2
DIMSTYLE
  5
A
330
0
100
AcDbSymbolTable
 70
     1
100
AcDbDimStyleTable
  0
DIMSTYLE
105
27
330
A
100
AcDbSymbolTableRecord
100
AcDbDimStyleTableRecord
  2
Standard
 70
     0
178
     0
340
11
  0
ENDTAB
  0
TABLE
  2
BLOCK_RECORD
  5
1
330
0
100
AcDbSymbolTable
 70
    15
  0
BLOCK_RECORD
  5
1F
330
1
100
AcDbSymbolTableRecord
100
AcDbBlockTableRecord
  2
*Model_Space
340
22
 70
     0
280
     1
281
     0
  0
BLOCK_RECORD
  5
1B
330
1
100
AcDbSymbolTableRecord
100
AcDbBlockTableRecord
  2
*Paper_Space
340
1E
 70
     0
280
     1
281
     0
  0
BLOCK_RECORD
  5
23
330
1
100
AcDbSymbolTableRecord
100
AcDbBlockTableRecord
  2
*Paper_Space0
340
26
 70
     0
280
     1
281
     0
  0
BLOCK_RECORD
  5
41
330
1
100
AcDbSymbolTableRecord
100
AcDbBlockTableRecord
  2
block 2
340
0
102
{BLKREFS
331
42
102
}
 70
     0
280
     1
281
     0
  0
BLOCK_RECORD
  5
46
330
1
100
AcDbSymbolTableRecord
100
AcDbBlockTableRecord
  2
block 3
340
0
102
{BLKREFS
331
47
102
}
 70
     0
280
     1
281
     0
  0
BLOCK_RECORD
  5
4A
330
1
100
AcDbSymbolTableRecord
100
AcDbBlockTableRecord
  2
block 4
340
0
102
{BLKREFS
331
4B
102
}
 70
     0
280
     1
281
     0
  0
BLOCK_RECORD
  5
57
330
1
100
AcDbSymbolTableRecord
100
AcDbBlockTableRecord
  2
block 5
340
0
102
{BLKREFS
331
58
102
}
 70
     0
280
     1
281
     0
  0
BLOCK_RECORD
  5
5B
330
1
100
AcDbSymbolTableRecord
100
AcDbBlockTableRecord
  2
block 6
340
0
102
{BLKREFS
331
5C
102
}
 70
     0
280
     1
281
     0
  0
BLOCK_RECORD
  5
64
330
1
100
AcDbSymbolTableRecord
100
AcDbBlockTableRecord
  2
block 7
340
0
102
{BLKREFS
331
65
102
}
 70
     0
280
     1
281
     0
  0
BLOCK_RECORD
  5
68
330
1
100
AcDbSymbolTableRecord
100
AcDbBlockTableRecord
  2
block 8
340
0
102
{BLKREFS
331
69
102
}
 70
     0
280
     1
281
     0
  0
BLOCK_RECORD
  5
75
330
1
100
AcDbSymbolTableRecord
100
AcDbBlockTableRecord
  2
block 9
340
0
102
{BLKREFS
331
76
102
}
 70
     0
280
     1
281
     0
  0
BLOCK_RECORD
  5
79
330
1
100
AcDbSymbolTableRecord
100
AcDbBlockTableRecord
  2
block 10
340
0
102
{BLKREFS
331
7A
102
}
 70
     0
280
     1
281
     0
  0
BLOCK_RECORD
  5
82
330
1
100
AcDbSymbolTableRecord
100
AcDbBlockTableRecord
  2
block 11
340
0
102
{BLKREFS
331
83
102
}
 70
     0
280
     1
281
     0
  0
BLOCK_RECORD
  5
86
330
1
100
AcDbSymbolTableRecord
100
AcDbBlockTableRecord
  2
block 12
340
0
102
{BLKREFS
331
87
102
}
 70
     0
280
     1
281
     0
  0
BLOCK_RECORD
  5
93
330
1
100
AcDbSymbolTableRecord
100
AcDbBlockTableRecord
  2
block 13
340
0
102
{BLKREFS
331
94
102
}
 70
     0
280
     1
281
     0
  0
BLOCK_RECORD
  5
97
330
1
100
AcDbSymbolTableRecord
100
AcDbBlockTableRecord
  2
block 14
340
0
102
{BLKREFS
331
98
102
}
 70
     0
280
     1
281
     0
  0
BLOCK_RECORD
  5
A1
330
1
100
AcDbSymbolTableRecord
100
AcDbBlockTableRecord
  2
block 15
340
0
102
{BLKREFS
331
A2
102
}
 70
     0
280
     1
281
     0
  0
ENDTAB
  0
ENDSEC
  0
SECTION
  2
BLOCKS
  0
BLOCK
  5
20
330
1F
100
AcDbEntity
  8
0
100
AcDbBlockBegin
  2
*Model_Space
 70
     0
 10
0.0
 20
0.0
 30
0.0
  3
*Model_Space
  1

  0
ENDBLK
  5
21
330
1F
100
AcDbEntity
  8
0
100
AcDbBlockEnd
  0
BLOCK
  5
1C
330
1B
100
AcDbEntity
 67
     1
  8
0
100
AcDbBlockBegin
  2
*Paper_Space
 70
     0
 10
0.0
 20
0.0
 30
0.0
  3
*Paper_Space
  1

  0
ENDBLK
  5
1D
330
1B
100
AcDbEntity
 67
     1
  8
0
100
AcDbBlockEnd
  0
BLOCK
  5
24
330
23
100
AcDbEntity
  8
0
100
AcDbBlockBegin
  2
*Paper_Space0
 70
     0
 10
0.0
 20
0.0
 30
0.0
  3
*Paper_Space0
  1

  0
ENDBLK
  5
25
330
23
100
AcDbEntity
  8
0
100
AcDbBlockEnd
  0
BLOCK
  5
43
330
41
100
AcDbEntity
  8
0
100
AcDbBlockBegin
  2
block 2
 70
     0
 10
0.0
 20
0.0
 30
0.0
  3
block 2
  1

  0
SPLINE
  5
45
330
41
100
AcDbEntity
  8
cut
370
     0
100
AcDbSpline
210
0.0
220
0.0
230
1.0
 70
    11
 71
     3
 72
   149
 73
   145
 74
     0
 42
0.0000000001
 43
0.0000000001
 12
1.0
 22
0.0
 32
0.0
 13
1.0
 23
0.0
 33
0.0
 40
0.0
 40
0.0
 40
0.0
 40
0.0
 40
1.0
 40
1.0
 40
1.0
 40
2.0
 40
2.0
 40
2.0
 40
3.0
 40
3.0
 40
3.0
 40
4.0
 40
4.0
 40
4.0
 40
5.0
 40
5.0
 40
5.0
 40
6.0
 40
6.0
 40
6.0
 40
7.0
 40
7.0
 40
7.0
 40
8.0
 40
8.0
 40
8.0
 40
9.0
 40
9.0
 40
9.0
 40
10.0
 40
10.0
 40
10.0
 40
11.0
 40
11.0
 40
11.0
 40
12.0
 40
12.0
 40
12.0
 40
13.0
 40
13.0
 40
13.0
 40
14.0
 40
14.0
 40
14.0
 40
15.0
 40
15.0
 40
15.0
 40
16.0
 40
16.0
 40
16.0
 40
17.0
 40
17.0
 40
17.0
 40
18.0
 40
18.0
 40
18.0
 40
19.0
 40
19.0
 40
19.0
 40
20.0
 40
20.0
 40
20.0
 40
21.0
 40
21.0
 40
21.0
 40
22.0
 40
22.0
 40
22.0
 40
23.0
 40
23.0
 40
23.0
 40
24.0
 40
24.0
 40
24.0
 40
25.0
 40
25.0
 40
25.0
 40
26.0
 40
26.0
 40
26.0
 40
27.0
 40
27.0
 40
27.0
 40
28.0
 40
28.0
 40
28.0
 40
29.0
 40
29.0
 40
29.0
 40
30.0
 40
30.0
 40
30.0
 40
31.0
 40
31.0
 40
31.0
 40
32.0
 40
32.0
 40
32.0
 40
33.0
 40
33.0
 40
33.0
 40
34.0
 40
34.0
 40
34.0
 40
35.0
 40
35.0
 40
35.0
 40
36.0
 40
36.0
 40
36.0
 40
37.0
 40
37.0
 40
37.0
 40
38.0
 40
38.0
 40
38.0
 40
39.0
 40
39.0
 40
39.0
 40
40.0
 40
40.0
 40
40.0
 40
41.0
 40
41.0
 40
41.0
 40
42.0
 40
42.0
 40
42.0
 40
43.0
 40
43.0
 40
43.0
 40
44.0
 40
44.0
 40
44.0
 40
45.0
 40
45.0
 40
45.0
 40
46.0
 40
46.0
 40
46.0
 40
47.0
 40
47.0
 40
47.0
 40
48.0
 40
48.0
 40
48.0
 40
48.0
 10
-200.194737032992
 20
-177.047543140819
 30
0.0
 10
-200.194737032992
 20
-177.047543140819
 30
0.0
 10
-192.2549422344526
 20
-177.0202511266775
 30
0.0
 10
-192.2549422344526
 20
-177.0202511266775
 30
0.0
 10
-192.2549422344526
 20
-177.0202511266775
 30
0.0
 10
-192.2430670569962
 20
-173.0202687551972
 30
0.0
 10
-192.2430670569962
 20
-173.0202687551972
 30
0.0
 10
-192.2430670569962
 20
-173.0202687551972
 30
0.0
 10
-200.457192271431
 20
-172.9354766151654
 30
0.0
 10
-200.457192271431
 20
-172.9354766151654
 30
0.0
 10
-202.7300065271235
 20
-172.8813544177119
 30
0.0
 10
-205.4289025892091
 20
-166.585662166398
 30
0.0
 10
-206.012757176704
 20
-164.3882150284794
 30
0.0
 10
-206.012757176704
 20
-164.3882150284794
 30
0.0
 10
-211.3713230306436
 20
-144.1516342892182
 30
0.0
 10
-211.3713230306436
 20
-144.1516342892182
 30
0.0
 10
-211.9540262067025
 20
-141.9548564845839
 30
0.0
 10
-210.6432860135123
 20
-139.7000735859782
 30
0.0
 10
-208.4445947748806
 20
-139.1169700176509
 30
0.0
 10
-208.4445947748806
 20
-139.1169700176509
 30
0.0
 10
-188.2073860627567
 20
-133.7587687815054
 30
0.0
 10
-188.2073860627567
 20
-133.7587687815054
 30
0.0
 10
-186.0075434126901
 20
-133.1763345464643
 30
0.0
 10
-180.3940479141986
 20
-131.5882889009795
 30
0.0
 10
-179.2212648457559
 20
-133.5405072044195
 30
0.0
 10
-176.2352553837154
 20
-138.5065094708355
 30
0.0
 10
-174.3390754031207
 20
-141.6389233770178
 30
0.0
 10
-174.3390754031207
 20
-141.6389233770178
 30
0.0
 10
-174.3390754031207
 20
-141.6389233770178
 30
0.0
 10
-170.8690514659995
 20
-139.6492163966283
 30
0.0
 10
-170.8690514659995
 20
-139.6492163966283
 30
0.0
 10
-170.8690514659995
 20
-139.6492163966283
 30
0.0
 10
-175.5965597588073
 20
-131.1228913356989
 30
0.0
 10
-175.5965597588073
 20
-131.1228913356989
 30
0.0
 10
-176.6876703074106
 20
-129.1262147783294
 30
0.0
 10
-171.8408647687168
 20
-125.0524582569941
 30
0.0
 10
-170.2283151040477
 20
-123.447422965889
 30
0.0
 10
-170.2283151040477
 20
-123.447422965889
 30
0.0
 10
-155.3836285214277
 20
-108.6910688276925
 30
0.0
 10
-155.3836285214277
 20
-108.6910688276925
 30
0.0
 10
-153.7710788567573
 20
-107.0860335365887
 30
0.0
 10
-151.1626325882762
 20
-107.093911454787
 30
0.0
 10
-149.5588535690505
 20
-108.7057308463389
 30
0.0
 10
-149.5588535690505
 20
-108.7057308463389
 30
0.0
 10
-131.3634294135691
 20
-125.5512829369171
 30
0.0
 10
-131.3634294135691
 20
-125.5512829369171
 30
0.0
 10
-129.760380652404
 20
-127.1643585449145
 30
0.0
 10
-128.9475051305724
 20
-130.1254430017528
 30
0.0
 10
-130.0916230195396
 20
-132.093596159362
 30
0.0
 10
-133.1789386524727
 20
-137.4045086711664
 30
0.0
 10
-134.4962090902278
 20
-139.6705251337127
 30
0.0
 10
-134.4962090902278
 20
-139.6705251337127
 30
0.0
 10
-134.4962090902278
 20
-139.6705251337127
 30
0.0
 10
-131.0380603305645
 20
-141.6808005248048
 30
0.0
 10
-131.0380603305645
 20
-141.6808005248048
 30
0.0
 10
-131.0380603305645
 20
-141.6808005248048
 30
0.0
 10
-126.6334742598747
 20
-134.1038715504541
 30
0.0
 10
-126.6334742598747
 20
-134.1038715504541
 30
0.0
 10
-125.4506083811469
 20
-132.1621608515714
 30
0.0
 10
-122.5114732415878
 20
-131.3782606043735
 30
0.0
 10
-120.3158200641471
 20
-131.9719165665856
 30
0.0
 10
-120.3158200641471
 20
-131.9719165665856
 30
0.0
 10
-96.67993107772766
 20
-139.4450668262273
 30
0.0
 10
-96.67993107772766
 20
-139.4450668262273
 30
0.0
 10
-94.48315295777395
 20
-140.0425701157714
 30
0.0
 10
-93.18604586664438
 20
-142.3033700797326
 30
0.0
 10
-93.78093540373817
 20
-144.498306225191
 30
0.0
 10
-93.78093540373817
 20
-144.498306225191
 30
0.0
 10
-99.25937376329813
 20
-164.7027668577435
 30
0.0
 10
-99.25937376329813
 20
-164.7027668577435
 30
0.0
 10
-99.8537600243516
 20
-166.8996762921113
 30
0.0
 10
-100.9112617270691
 20
-173.1064321381839
 30
0.0
 10
-103.1858370896463
 20
-173.1480960432897
 30
0.0
 10
-108.9784390015549
 20
-173.2504592262942
 30
0.0
 10
-113.0465043542895
 20
-173.260026391155
 30
0.0
 10
-113.0465043542895
 20
-173.260026391155
 30
0.0
 10
-113.0465043542895
 20
-173.260026391155
 30
0.0
 10
-113.0583795317455
 20
-177.2600087626359
 30
0.0
 10
-113.0583795317455
 20
-177.2600087626359
 30
0.0
 10
-113.0583795317455
 20
-177.2600087626359
 30
0.0
 10
-103.3026263438118
 20
-177.4374696460039
 30
0.0
 10
-103.3026263438118
 20
-177.4374696460039
 30
0.0
 10
-101.0284302500636
 20
-177.4923951273029
 30
0.0
 10
-99.90269956669178
 20
-183.2304128025454
 30
0.0
 10
-99.32153249444065
 20
-185.4294910271018
 30
0.0
 10
-99.32153249444065
 20
-185.4294910271018
 30
0.0
 10
-93.96312746982427
 20
-205.6634571836536
 30
0.0
 10
-93.96312746982427
 20
-205.6634571836536
 30
0.0
 10
-93.38068118930615
 20
-207.8632790317712
 30
0.0
 10
-94.69149440830263
 20
-210.1181875520226
 30
0.0
 10
-96.8913162417076
 20
-210.7006338881113
 30
0.0
 10
-96.8913162417076
 20
-210.7006338881113
 30
0.0
 10
-117.1269036083879
 20
-216.0589372740758
 30
0.0
 10
-117.1269036083879
 20
-216.0589372740758
 30
0.0
 10
-119.3240587432108
 20
-216.6397404224792
 30
0.0
 10
-125.9830626037724
 20
-217.2729056334873
 30
0.0
 10
-127.1549193771501
 20
-215.32458725322
 30
0.0
 10
-130.1392988929145
 20
-210.3561710462804
 30
0.0
 10
-131.3089076765901
 20
-208.2880939143926
 30
0.0
 10
-131.3089076765901
 20
-208.2880939143926
 30
0.0
 10
-131.3089076765901
 20
-208.2880939143926
 30
0.0
 10
-134.7702678994631
 20
-210.2927601113963
 30
0.0
 10
-134.7702678994631
 20
-210.2927601113963
 30
0.0
 10
-134.7702678994631
 20
-210.2927601113963
 30
0.0
 10
-130.7152713671139
 20
-217.518432305363
 30
0.0
 10
-130.7152713671139
 20
-217.518432305363
 30
0.0
 10
-129.6241170100605
 20
-219.5151343292603
 30
0.0
 10
-133.4901765592775
 20
-224.7622620031339
 30
0.0
 10
-135.1058432931937
 20
-226.3671660204027
 30
0.0
 10
-135.1058432931937
 20
-226.3671660204027
 30
0.0
 10
-149.9493035728941
 20
-241.12406495479
 30
0.0
 10
-149.9493035728941
 20
-241.12406495479
 30
0.0
 10
-151.5622762566171
 20
-242.727173611613
 30
0.0
 10
-154.1690433517665
 20
-242.7219525496153
 30
0.0
 10
-155.7741012076122
 20
-241.1093897505482
 30
0.0
 10
-159.6868677046273
 20
-237.1704143250384
 30
0.0
 10
-166.6185416077088
 20
-230.1996531869776
 30
0.0
 10
-170.5340978630679
 20
-226.2625855579654
 30
0.0
 10
-172.136416366171
 20
-224.6482537335218
 30
0.0
 10
-176.2891081033121
 20
-219.6163950010136
 30
0.0
 10
-175.1856820455313
 20
-217.6251432513163
 30
0.0
 10
-175.1856820455313
 20
-217.6251432513163
 30
0.0
 10
-170.8343149421516
 20
-210.1397634779397
 30
0.0
 10
-170.8343149421516
 20
-210.1397634779397
 30
0.0
 10
-170.8343149421516
 20
-210.1397634779397
 30
0.0
 10
-174.2924637018158
 20
-208.1294880868476
 30
0.0
 10
-174.2924637018158
 20
-208.1294880868476
 30
0.0
 10
-174.2924637018158
 20
-208.1294880868476
 30
0.0
 10
-178.6438308051955
 20
-215.6148678602243
 30
0.0
 10
-178.6438308051955
 20
-215.6148678602243
 30
0.0
 10
-179.8280259261436
 20
-217.5559739227104
 30
0.0
 10
-186.2541532926119
 20
-216.4413947770304
 30
0.0
 10
-188.4498794958598
 20
-215.8478644364628
 30
0.0
 10
-188.4498794958598
 20
-215.8478644364628
 30
0.0
 10
-208.6541542937068
 20
-210.3693965384224
 30
0.0
 10
-208.6541542937068
 20
-210.3693965384224
 30
0.0
 10
-210.8484199808324
 20
-209.77335376496
 30
0.0
 10
-212.1467832883779
 20
-207.5118235429577
 30
0.0
 10
-211.5507404741974
 20
-205.3175578153158
 30
0.0
 10
-210.0989713620778
 20
-199.9572589137474
 30
0.0
 10
-207.5264281244216
 20
-190.472194055921
 30
0.0
 10
-206.0747846339433
 20
-185.1118221285482
 30
0.0
 10
-205.4786687939581
 20
-182.9174307792631
 30
0.0
 10
-202.4697419496368
 20
-177.0874446854143
 30
0.0
 10
-200.194737032992
 20
-177.047543140819
 30
0.0
  0
ENDBLK
  5
44
330
41
100
AcDbEntity
  8
0
100
AcDbBlockEnd
  0
BLOCK
  5
48
330
46
100
AcDbEntity
  8
0
100
AcDbBlockBegin
  2
block 3
 70
     0
 10
0.0
 20
0.0
 30
0.0
  3
block 3
  1

  0
INSERT
  5
4B
330
46
100
AcDbEntity
  8
cut
100
AcDbBlockReference
  2
block 4
 10
0.0
 20
0.0
 30
0.0
  0
SPLINE
  5
53
330
46
100
AcDbEntity
  8
cut
370
     0
100
AcDbSpline
210
0.0
220
0.0
230
1.0
 70
    11
 71
     3
 72
   116
 73
   112
 74
     0
 42
0.0000000001
 43
0.0000000001
 12
1.0
 22
0.0
 32
0.0
 13
1.0
 23
0.0
 33
0.0
 40
0.0
 40
0.0
 40
0.0
 40
0.0
 40
1.0
 40
1.0
 40
1.0
 40
2.0
 40
2.0
 40
2.0
 40
3.0
 40
3.0
 40
3.0
 40
4.0
 40
4.0
 40
4.0
 40
5.0
 40
5.0
 40
5.0
 40
6.0
 40
6.0
 40
6.0
 40
7.0
 40
7.0
 40
7.0
 40
8.0
 40
8.0
 40
8.0
 40
9.0
 40
9.0
 40
9.0
 40
10.0
 40
10.0
 40
10.0
 40
11.0
 40
11.0
 40
11.0
 40
12.0
 40
12.0
 40
12.0
 40
13.0
 40
13.0
 40
13.0
 40
14.0
 40
14.0
 40
14.0
 40
15.0
 40
15.0
 40
15.0
 40
16.0
 40
16.0
 40
16.0
 40
17.0
 40
17.0
 40
17.0
 40
18.0
 40
18.0
 40
18.0
 40
19.0
 40
19.0
 40
19.0
 40
20.0
 40
20.0
 40
20.0
 40
21.0
 40
21.0
 40
21.0
 40
22.0
 40
22.0
 40
22.0
 40
23.0
 40
23.0
 40
23.0
 40
24.0
 40
24.0
 40
24.0
 40
25.0
 40
25.0
 40
25.0
 40
26.0
 40
26.0
 40
26.0
 40
27.0
 40
27.0
 40
27.0
 40
28.0
 40
28.0
 40
28.0
 40
29.0
 40
29.0
 40
29.0
 40
30.0
 40
30.0
 40
30.0
 40
31.0
 40
31.0
 40
31.0
 40
32.0
 40
32.0
 40
32.0
 40
33.0
 40
33.0
 40
33.0
 40
34.0
 40
34.0
 40
34.0
 40
35.0
 40
35.0
 40
35.0
 40
36.0
 40
36.0
 40
36.0
 40
37.0
 40
37.0
 40
37.0
 40
37.0
 10
-282.8611407432455
 20
-92.6242188208558
 30
0.0
 10
-282.8611407432455
 20
-92.6242188208558
 30
0.0
 10
-282.8611407432455
 20
-90.09263858894948
 30
0.0
 10
-282.8611407432455
 20
-90.09263858894948
 30
0.0
 10
-282.8611407432455
 20
-90.09263858894948
 30
0.0
 10
-282.8611407432455
 20
-90.09263858894948
 30
0.0
 10
-282.8611407432455
 20
-90.09263858894948
 30
0.0
 10
-240.6126225277557
 20
-47.83816348827158
 30
0.0
 10
-242.0551149629337
 20
15.32723233560263
 30
0.0
 10
-282.864197807501
 20
56.1305610194851
 30
0.0
 10
-282.864197807501
 20
56.1305610194851
 30
0.0
 10
-282.8611407432455
 20
58.71132574757343
 30
0.0
 10
-282.8611407432455
 20
58.71132574757343
 30
0.0
 10
-282.8611407432455
 20
60.98607675699191
 30
0.0
 10
-281.0178005129343
 20
62.86763222304115
 30
0.0
 10
-278.7446478593832
 20
62.9144204584309
 30
0.0
 10
-278.7446478593832
 20
62.9144204584309
 30
0.0
 10
-270.1457607431068
 20
63.24077566553122
 30
0.0
 10
-270.1457607431068
 20
63.24077566553122
 30
0.0
 10
-270.1457607431068
 20
63.24077566553122
 30
0.0
 10
-270.1472137938966
 20
67.21875491835654
 30
0.0
 10
-270.1472137938966
 20
67.21875491835654
 30
0.0
 10
-270.1472137938966
 20
67.21875491835654
 30
0.0
 10
-278.7431948085941
 20
67.54365707466833
 30
0.0
 10
-278.7431948085941
 20
67.54365707466833
 30
0.0
 10
-281.0178005129343
 20
67.59189836084758
 30
0.0
 10
-282.8611407432455
 20
69.47490687768374
 30
0.0
 10
-282.8624484889552
 20
71.74820483631626
 30
0.0
 10
-282.8624484889552
 20
71.74820483631626
 30
0.0
 10
-282.8611407432455
 20
95.65453809937488
 30
0.0
 10
-282.8611407432455
 20
95.65453809937488
 30
0.0
 10
-282.8624484889552
 20
100.2052025588468
 30
0.0
 10
-279.9223455234733
 20
106.1195551833396
 30
0.0
 10
-276.2968385010496
 20
108.8666930041061
 30
0.0
 10
-276.2968385010496
 20
108.8666930041061
 30
0.0
 10
-214.3477656055365
 20
155.8127297099241
 30
0.0
 10
-214.3477656055365
 20
155.8127297099241
 30
0.0
 10
-210.722258674701
 20
158.5627736322671
 30
0.0
 10
-208.3468113056451
 20
157.1437242322023
 30
0.0
 10
-209.0435491411365
 20
152.6498740585632
 30
0.0
 10
-209.0435491411365
 20
152.6498740585632
 30
0.0
 10
-219.6391952233202
 20
84.20319014016654
 30
0.0
 10
-219.6391952233202
 20
84.20319014016654
 30
0.0
 10
-220.3344763474181
 20
79.7064338649491
 30
0.0
 10
-217.2580809563325
 20
76.64848848051984
 30
0.0
 10
-212.7655386418926
 20
77.36789392591312
 30
0.0
 10
-212.7655386418926
 20
77.36789392591312
 30
0.0
 10
-138.1775374500898
 20
89.35832372766087
 30
0.0
 10
-138.1775374500898
 20
89.35832372766087
 30
0.0
 10
-133.6849951356497
 20
90.08208832541975
 30
0.0
 10
-132.4873907060097
 20
87.9052729391454
 30
0.0
 10
-135.5013085754101
 20
84.49554395881651
 30
0.0
 10
-135.5013085754101
 20
84.49554395881651
 30
0.0
 10
-184.6411555580181
 20
28.93117241615794
 30
0.0
 10
-184.6411555580181
 20
28.93117241615794
 30
0.0
 10
-187.6565310405021
 20
25.52275118153841
 30
0.0
 10
-186.6418657005148
 20
21.47585943044359
 30
0.0
 10
-182.3764352185824
 20
19.88941857954542
 30
0.0
 10
-182.3764352185824
 20
19.88941857954542
 30
0.0
 10
-107.2534207399632
 20
-8.01947322054397
 30
0.0
 10
-107.2534207399632
 20
-8.01947322054397
 30
0.0
 10
-102.9878449529559
 20
-9.60446102065649
 30
0.0
 10
-103.0219916456236
 20
-12.07639102207773
 30
0.0
 10
-107.3285434638318
 20
-13.54077560674246
 30
0.0
 10
-107.3285434638318
 20
-13.54077560674246
 30
0.0
 10
-187.3925117188989
 20
-40.78257178982089
 30
0.0
 10
-187.3925117188989
 20
-40.78257178982089
 30
0.0
 10
-191.7006618929335
 20
-42.24986247606621
 30
0.0
 10
-192.5434313289828
 20
-46.00163961201028
 30
0.0
 10
-189.274067137415
 20
-49.16609361924051
 30
0.0
 10
-189.274067137415
 20
-49.16609361924051
 30
0.0
 10
-137.4170049312793
 20
-99.38425539571446
 30
0.0
 10
-137.4170049312793
 20
-99.38425539571446
 30
0.0
 10
-134.1476406571203
 20
-102.5485640978639
 30
0.0
 10
-135.1791672237343
 20
-104.8927709349732
 30
0.0
 10
-139.7199508231338
 20
-104.6203239121265
 30
0.0
 10
-139.7199508231338
 20
-104.6203239121265
 30
0.0
 10
-214.0895584869402
 20
-100.1476882800006
 30
0.0
 10
-214.0895584869402
 20
-100.1476882800006
 30
0.0
 10
-218.631649832017
 20
-99.8752412571538
 30
0.0
 10
-221.8428883709753
 20
-103.31199698215
 30
0.0
 10
-221.2625398860419
 20
-107.8244462058842
 30
0.0
 10
-221.2625398860419
 20
-107.8244462058842
 30
0.0
 10
-211.8319535338561
 20
-181.2205117201179
 30
0.0
 10
-211.8319535338561
 20
-181.2205117201179
 30
0.0
 10
-211.2514597585086
 20
-185.7329609438515
 30
0.0
 10
-213.7688701860169
 20
-187.2285861204706
 30
0.0
 10
-217.453948464266
 20
-184.5607848727576
 30
0.0
 10
-217.453948464266
 20
-184.5607848727576
 30
0.0
 10
-276.1890221325419
 20
-142.02504792024
 30
0.0
 10
-276.1890221325419
 20
-142.02504792024
 30
0.0
 10
-279.8755572880841
 20
-139.3573919776048
 30
0.0
 10
-282.8611407432455
 20
-133.5082813335162
 30
0.0
 10
-282.8624484889552
 20
-128.956163823258
 30
0.0
 10
-282.8624484889552
 20
-128.956163823258
 30
0.0
 10
-282.8624484889552
 20
-105.6858794522729
 30
0.0
 10
-282.8624484889552
 20
-105.6858794522729
 30
0.0
 10
-282.8624484889552
 20
-103.4098206971428
 30
0.0
 10
-281.0178005129343
 20
-101.5282652310935
 30
0.0
 10
-278.7446478593832
 20
-101.4800239449143
 30
0.0
 10
-278.7446478593832
 20
-101.4800239449143
 30
0.0
 10
-270.1457607431068
 20
-101.1536687378146
 30
0.0
 10
-270.1457607431068
 20
-101.1536687378146
 30
0.0
 10
-270.1457607431068
 20
-101.1536687378146
 30
0.0
 10
-270.1472137938966
 20
-97.15366873881489
 30
0.0
 10
-270.1472137938966
 20
-97.15366873881489
 30
0.0
 10
-270.1472137938966
 20
-97.15366873881489
 30
0.0
 10
-278.7446478593832
 20
-96.83007432821309
 30
0.0
 10
-278.7446478593832
 20
-96.83007432821309
 30
0.0
 10
-281.0178005129343
 20
-96.78183304203448
 30
0.0
 10
-282.8598329975358
 20
-94.90027757598524
 30
0.0
 10
-282.8611407432455
 20
-92.6242188208558
 30
0.0
  0
POLYLINE
  5
54
330
46
100
AcDbEntity
  8
cut
370
     0
100
AcDb2dPolyline
 66
     1
 10
0.0
 20
0.0
 30
0.0
  0
VERTEX
  5
55
330
54
100
AcDbEntity
  8
cut
370
     0
100
AcDbVertex
100
AcDb2dVertex
 10
-282.8611407432455
 20
-92.6242188208558
 30
0.0
  0
VERTEX
  5
A8
330
54
100
AcDbEntity
  8
0
100
AcDbVertex
100
AcDb2dVertex
 10
-282.8611407432455
 20
-92.6242188208558
 30
0.0
  0
SEQEND
  5
56
330
54
100
AcDbEntity
  8
cut
370
     0
  0
ENDBLK
  5
49
330
46
100
AcDbEntity
  8
0
100
AcDbBlockEnd
  0
BLOCK
  5
4C
330
4A
100
AcDbEntity
  8
0
100
AcDbBlockBegin
  2
block 4
 70
     0
 10
0.0
 20
0.0
 30
0.0
  3
block 4
  1

  0
SPLINE
  5
4E
330
4A
100
AcDbEntity
  8
cut
370
     0
100
AcDbSpline
210
0.0
220
0.0
230
1.0
 70
    11
 71
     3
 72
    23
 73
    19
 74
     0
 42
0.0000000001
 43
0.0000000001
 12
1.0
 22
0.0
 32
0.0
 13
1.0
 23
0.0
 33
0.0
 40
0.0
 40
0.0
 40
0.0
 40
0.0
 40
1.0
 40
1.0
 40
1.0
 40
2.0
 40
2.0
 40
2.0
 40
3.0
 40
3.0
 40
3.0
 40
4.0
 40
4.0
 40
4.0
 40
5.0
 40
5.0
 40
5.0
 40
6.0
 40
6.0
 40
6.0
 40
6.0
 10
-232.3760535369206
 20
18.64633362996859
 30
0.0
 10
-232.3760535369206
 20
18.64633362996859
 30
0.0
 10
-165.4335728423518
 20
70.46590268046643
 30
0.0
 10
-165.4335728423518
 20
70.46590268046643
 30
0.0
 10
-163.6357131471395
 20
71.85792533586326
 30
0.0
 10
-163.9578544988161
 20
72.51208880085308
 30
0.0
 10
-166.1573374218271
 20
71.92752646863424
 30
0.0
 10
-166.1573374218271
 20
71.92752646863424
 30
0.0
 10
-220.6878582991845
 20
57.40907890502857
 30
0.0
 10
-220.6878582991845
 20
57.40907890502857
 30
0.0
 10
-222.8858882269717
 20
56.82161047123235
 30
0.0
 10
-225.1519209316606
 20
54.5682193084011
 30
0.0
 10
-225.7508684666875
 20
52.3744032279019
 30
0.0
 10
-225.7508684666875
 20
52.3744032279019
 30
0.0
 10
-234.5499628216185
 20
20.09938441848405
 30
0.0
 10
-234.5499628216185
 20
20.09938441848405
 30
0.0
 10
-235.1473120007774
 20
17.9042605922755
 30
0.0
 10
-234.1753663283386
 20
17.25285792378484
 30
0.0
 10
-232.3760535369206
 20
18.64633362996859
 30
0.0
  0
SPLINE
  5
4F
330
4A
100
AcDbEntity
  8
cut
370
     0
100
AcDbSpline
210
0.0
220
0.0
230
1.0
 70
    11
 71
     3
 72
    23
 73
    19
 74
     0
 42
0.0000000001
 43
0.0000000001
 12
1.0
 22
0.0
 32
0.0
 13
1.0
 23
0.0
 33
0.0
 40
0.0
 40
0.0
 40
0.0
 40
0.0
 40
1.0
 40
1.0
 40
1.0
 40
2.0
 40
2.0
 40
2.0
 40
3.0
 40
3.0
 40
3.0
 40
4.0
 40
4.0
 40
4.0
 40
5.0
 40
5.0
 40
5.0
 40
6.0
 40
6.0
 40
6.0
 40
6.0
 10
-240.8304842448167
 20
-35.37911182257166
 30
0.0
 10
-240.8304842448167
 20
-35.37911182257166
 30
0.0
 10
-140.3940210668977
 20
-11.33562573009239
 30
0.0
 10
-140.3940210668977
 20
-11.33562573009239
 30
0.0
 10
-138.1817512972704
 20
-10.80497158212678
 30
0.0
 10
-138.1704175014054
 20
-9.910909431954577
 30
0.0
 10
-140.3713534751687
 20
-9.336227845096142
 30
0.0
 10
-140.3713534751687
 20
-9.336227845096142
 30
0.0
 10
-212.7584186932092
 20
9.598767590200982
 30
0.0
 10
-212.7584186932092
 20
9.598767590200982
 30
0.0
 10
-214.9608077177241
 20
10.17490222784795
 30
0.0
 10
-217.6894917245447
 20
9.058232696873999
 30
0.0
 10
-218.8573086137725
 20
7.105623047267178
 30
0.0
 10
-218.8573086137725
 20
7.105623047267178
 30
0.0
 10
-242.7219204562269
 20
-32.80212624914088
 30
0.0
 10
-242.7219204562269
 20
-32.80212624914088
 30
0.0
 10
-243.8898826800351
 20
-34.75473589874898
 30
0.0
 10
-243.0413010195423
 20
-35.90700517404034
 30
0.0
 10
-240.8304842448167
 20
-35.37911182257166
 30
0.0
  0
SPLINE
  5
50
330
4A
100
AcDbEntity
  8
cut
370
     0
100
AcDbSpline
210
0.0
220
0.0
230
1.0
 70
    11
 71
     3
 72
    23
 73
    19
 74
     0
 42
0.0000000001
 43
0.0000000001
 12
1.0
 22
0.0
 32
0.0
 13
1.0
 23
0.0
 33
0.0
 40
0.0
 40
0.0
 40
0.0
 40
0.0
 40
1.0
 40
1.0
 40
1.0
 40
2.0
 40
2.0
 40
2.0
 40
3.0
 40
3.0
 40
3.0
 40
4.0
 40
4.0
 40
4.0
 40
5.0
 40
5.0
 40
5.0
 40
6.0
 40
6.0
 40
6.0
 40
6.0
 10
-252.906062822771
 20
-72.98813477155143
 30
0.0
 10
-252.906062822771
 20
-72.98813477155143
 30
0.0
 10
-168.1055878698516
 20
-89.96775976074288
 30
0.0
 10
-168.1055878698516
 20
-89.96775976074288
 30
0.0
 10
-165.8734113049242
 20
-90.4161712340792
 30
0.0
 10
-165.5017209226113
 20
-89.61873696134178
 30
0.0
 10
-167.271246128164
 20
-88.1883537651258
 30
0.0
 10
-167.271246128164
 20
-88.1883537651258
 30
0.0
 10
-221.4626249796202
 20
-44.39819806688502
 30
0.0
 10
-221.4626249796202
 20
-44.39819806688502
 30
0.0
 10
-223.2321502298752
 20
-42.9707209722461
 30
0.0
 10
-226.0118363883036
 20
-43.07287044268147
 30
0.0
 10
-227.667878371974
 20
-44.63373759970276
 30
0.0
 10
-227.667878371974
 20
-44.63373759970276
 30
0.0
 10
-253.9433957806918
 20
-69.35826859676098
 30
0.0
 10
-253.9433957806918
 20
-69.35826859676098
 30
0.0
 10
-255.6007455100719
 20
-70.91637495728502
 30
0.0
 10
-255.1353333425101
 20
-72.54248409471106
 30
0.0
 10
-252.906062822771
 20
-72.98813477155143
 30
0.0
  0
SPLINE
  5
51
330
4A
100
AcDbEntity
  8
cut
370
     0
100
AcDbSpline
210
0.0
220
0.0
230
1.0
 70
    11
 71
     3
 72
    23
 73
    19
 74
     0
 42
0.0000000001
 43
0.0000000001
 12
1.0
 22
0.0
 32
0.0
 13
1.0
 23
0.0
 33
0.0
 40
0.0
 40
0.0
 40
0.0
 40
0.0
 40
1.0
 40
1.0
 40
1.0
 40
2.0
 40
2.0
 40
2.0
 40
3.0
 40
3.0
 40
3.0
 40
4.0
 40
4.0
 40
4.0
 40
5.0
 40
5.0
 40
5.0
 40
6.0
 40
6.0
 40
6.0
 40
6.0
 10
-265.1775126470172
 20
-128.6665708011052
 30
0.0
 10
-265.1775126470172
 20
-128.6665708011052
 30
0.0
 10
-229.769425727404
 20
-159.8987350596075
 30
0.0
 10
-229.769425727404
 20
-159.8987350596075
 30
0.0
 10
-228.0623816610568
 20
-161.4027879307982
 30
0.0
 10
-227.1555326639445
 20
-160.8408931908791
 30
0.0
 10
-227.7402403012426
 20
-158.641410212303
 30
0.0
 10
-227.7402403012426
 20
-158.641410212303
 30
0.0
 10
-237.9625979035254
 20
-120.3201017667973
 30
0.0
 10
-237.9625979035254
 20
-120.3201017667973
 30
0.0
 10
-238.5487585916113
 20
-118.1206187882225
 30
0.0
 10
-240.7751230097749
 20
-116.9145866337549
 30
0.0
 10
-242.937698498321
 20
-117.623966028707
 30
0.0
 10
-242.937698498321
 20
-117.623966028707
 30
0.0
 10
-264.3517438839044
 20
-124.6593473365405
 30
0.0
 10
-264.3517438839044
 20
-124.6593473365405
 30
0.0
 10
-266.5156271181611
 20
-125.3661112400739
 30
0.0
 10
-266.8832489676545
 20
-127.1625179299152
 30
0.0
 10
-265.1775126470172
 20
-128.6665708011052
 30
0.0
  0
SPLINE
  5
52
330
4A
100
AcDbEntity
  8
cut
370
     0
100
AcDbSpline
210
0.0
220
0.0
230
1.0
 70
    11
 71
     3
 72
    23
 73
    19
 74
     0
 42
0.0000000001
 43
0.0000000001
 12
1.0
 22
0.0
 32
0.0
 13
1.0
 23
0.0
 33
0.0
 40
0.0
 40
0.0
 40
0.0
 40
0.0
 40
1.0
 40
1.0
 40
1.0
 40
2.0
 40
2.0
 40
2.0
 40
3.0
 40
3.0
 40
3.0
 40
4.0
 40
4.0
 40
4.0
 40
5.0
 40
5.0
 40
5.0
 40
6.0
 40
6.0
 40
6.0
 40
6.0
 10
-227.8452958732524
 20
129.8706874571701
 30
0.0
 10
-227.8452958732524
 20
129.8706874571701
 30
0.0
 10
-255.7058010820815
 20
106.8972279653523
 30
0.0
 10
-255.7058010820815
 20
106.8972279653523
 30
0.0
 10
-257.4596333838198
 20
105.4498440749134
 30
0.0
 10
-257.8314690806008
 20
102.7593752348993
 30
0.0
 10
-256.5344759467723
 20
100.8919143614988
 30
0.0
 10
-256.5344759467723
 20
100.8919143614988
 30
0.0
 10
-245.3286935708223
 20
84.7409642369966
 30
0.0
 10
-245.3286935708223
 20
84.7409642369966
 30
0.0
 10
-244.0317004369938
 20
82.87074256709951
 30
0.0
 10
-242.3601108098868
 20
83.09349525297819
 30
0.0
 10
-241.5924640783142
 20
85.23485620001203
 30
0.0
 10
-241.5924640783142
 20
85.23485620001203
 30
0.0
 10
-226.0558638271961
 20
128.6135079149465
 30
0.0
 10
-226.0558638271961
 20
128.6135079149465
 30
0.0
 10
-225.2896701464108
 20
130.7547235569031
 30
0.0
 10
-226.0900105207253
 20
131.318071347609
 30
0.0
 10
-227.8452958732524
 20
129.8706874571701
 30
0.0
  0
ENDBLK
  5
4D
330
4A
100
AcDbEntity
  8
0
100
AcDbBlockEnd
  0
BLOCK
  5
59
330
57
100
AcDbEntity
  8
0
100
AcDbBlockBegin
  2
block 5
 70
     0
 10
0.0
 20
0.0
 30
0.0
  3
block 5
  1

  0
INSERT
  5
5C
330
57
100
AcDbEntity
  8
cut
100
AcDbBlockReference
  2
block 6
 10
0.0
 20
0.0
 30
0.0
  0
SPLINE
  5
63
330
57
100
AcDbEntity
  8
cut
370
     0
100
AcDbSpline
210
0.0
220
0.0
230
1.0
 70
     8
 71
     3
 72
   107
 73
   103
 74
     0
 42
0.0000000001
 43
0.0000000001
 12
1.0
 22
0.0
 32
0.0
 13
1.0
 23
0.0
 33
0.0
 40
0.0
 40
0.0
 40
0.0
 40
0.0
 40
1.0
 40
1.0
 40
1.0
 40
2.0
 40
2.0
 40
2.0
 40
3.0
 40
3.0
 40
3.0
 40
4.0
 40
4.0
 40
4.0
 40
5.0
 40
5.0
 40
5.0
 40
6.0
 40
6.0
 40
6.0
 40
7.0
 40
7.0
 40
7.0
 40
8.0
 40
8.0
 40
8.0
 40
9.0
 40
9.0
 40
9.0
 40
10.0
 40
10.0
 40
10.0
 40
11.0
 40
11.0
 40
11.0
 40
12.0
 40
12.0
 40
12.0
 40
13.0
 40
13.0
 40
13.0
 40
14.0
 40
14.0
 40
14.0
 40
15.0
 40
15.0
 40
15.0
 40
16.0
 40
16.0
 40
16.0
 40
17.0
 40
17.0
 40
17.0
 40
18.0
 40
18.0
 40
18.0
 40
19.0
 40
19.0
 40
19.0
 40
20.0
 40
20.0
 40
20.0
 40
21.0
 40
21.0
 40
21.0
 40
22.0
 40
22.0
 40
22.0
 40
23.0
 40
23.0
 40
23.0
 40
24.0
 40
24.0
 40
24.0
 40
25.0
 40
25.0
 40
25.0
 40
26.0
 40
26.0
 40
26.0
 40
27.0
 40
27.0
 40
27.0
 40
28.0
 40
28.0
 40
28.0
 40
29.0
 40
29.0
 40
29.0
 40
30.0
 40
30.0
 40
30.0
 40
31.0
 40
31.0
 40
31.0
 40
32.0
 40
32.0
 40
32.0
 40
33.0
 40
33.0
 40
33.0
 40
34.0
 40
34.0
 40
34.0
 40
34.0
 10
-15.77379630087816
 20
-73.13778269862408
 30
0.0
 10
-15.77379630087816
 20
-73.13778269862408
 30
0.0
 10
-15.77379630087816
 20
-76.24774536552414
 30
0.0
 10
-15.77379630087816
 20
-76.24774536552414
 30
0.0
 10
-15.77379630087816
 20
-78.52104332415634
 30
0.0
 10
-17.61713648462187
 20
-80.402598790203
 30
0.0
 10
-19.89028908074957
 20
-80.45084007638161
 30
0.0
 10
-19.89028908074957
 20
-80.45084007638161
 30
0.0
 10
-28.48771428826847
 20
-80.78010138505867
 30
0.0
 10
-28.48771428826847
 20
-80.78010138505867
 30
0.0
 10
-28.48771428826847
 20
-80.78010138505867
 30
0.0
 10
-28.48771428826847
 20
-84.78010138405872
 30
0.0
 10
-28.48771428826847
 20
-84.78010138405872
 30
0.0
 10
-28.48771428826847
 20
-84.78010138405872
 30
0.0
 10
-19.89028908074957
 20
-85.1064565911584
 30
0.0
 10
-19.89028908074957
 20
-85.1064565911584
 30
0.0
 10
-17.61568343387024
 20
-85.15193708083913
 30
0.0
 10
-15.77379630087816
 20
-87.0363986484635
 30
0.0
 10
-15.77379630087816
 20
-89.30955130201588
 30
0.0
 10
-15.77379630087816
 20
-89.30955130201588
 30
0.0
 10
-15.77379630087816
 20
-113.2592998589107
 30
0.0
 10
-15.77379630087816
 20
-113.2592998589107
 30
0.0
 10
-15.77379630087816
 20
-117.8085112675958
 30
0.0
 10
-19.22057798924149
 20
-122.8119463527687
 30
0.0
 10
-23.47191387888121
 20
-124.432388592121
 30
0.0
 10
-23.47191387888121
 20
-124.432388592121
 30
0.0
 10
-85.95731005380141
 20
-148.2460020498562
 30
0.0
 10
-85.95731005380141
 20
-148.2460020498562
 30
0.0
 10
-90.20864594344113
 20
-149.866444289208
 30
0.0
 10
-92.67054983222867
 20
-147.6272930241059
 30
0.0
 10
-91.45739775954506
 20
-143.242566964684
 30
0.0
 10
-91.45739775954506
 20
-143.242566964684
 30
0.0
 10
-79.93514121293332
 20
-101.6064137553363
 30
0.0
 10
-79.93514121293332
 20
-101.6064137553363
 30
0.0
 10
-78.72053608949712
 20
-97.22183300099285
 30
0.0
 10
-81.34561757771287
 20
-92.90234892197303
 30
0.0
 10
-85.79557831206618
 20
-91.96019079070075
 30
0.0
 10
-85.79557831206618
 20
-91.96019079070075
 30
0.0
 10
-144.4652704057978
 20
-79.53544410826672
 30
0.0
 10
-144.4652704057978
 20
-79.53544410826672
 30
0.0
 10
-148.916691383961
 20
-78.59328597699444
 30
0.0
 10
-149.7581530743334
 20
-75.3862575816628
 30
0.0
 10
-146.349731925817
 20
-72.37524573770119
 30
0.0
 10
-146.349731925817
 20
-72.37524573770119
 30
0.0
 10
-78.13016156903755
 20
-12.16445368860836
 30
0.0
 10
-78.13016156903755
 20
-12.16445368860836
 30
0.0
 10
-74.72174042052151
 20
-9.15329653956853
 30
0.0
 10
-74.98285364062204
 20
-4.608298978170562
 30
0.0
 10
-78.71762998799353
 20
-2.011551914015745
 30
0.0
 10
-78.71762998799353
 20
-2.011551914015745
 30
0.0
 10
-154.5373823021041
 20
50.70992576091109
 30
0.0
 10
-154.5373823021041
 20
50.70992576091109
 30
0.0
 10
-158.2736117002282
 20
53.3052197742793
 30
0.0
 10
-157.7826204766775
 20
56.51631671181882
 30
0.0
 10
-153.440474289565
 20
57.87579102955157
 30
0.0
 10
-153.440474289565
 20
57.87579102955157
 30
0.0
 10
-84.18211795031782
 20
79.58422450488798
 30
0.0
 10
-84.18211795031782
 20
79.58422450488798
 30
0.0
 10
-79.84141943944219
 20
80.94645961912151
 30
0.0
 10
-77.66620246398553
 20
85.48302948594504
 30
0.0
 10
-79.32209910074538
 20
89.72157863604235
 30
0.0
 10
-79.32209910074538
 20
89.72157863604235
 30
0.0
 10
-96.64667790947622
 20
134.0169600934507
 30
0.0
 10
-96.64667790947622
 20
134.0169600934507
 30
0.0
 10
-98.3025745462364
 20
138.2540561927611
 30
0.0
 10
-96.08042403149699
 20
140.750106837272
 30
0.0
 10
-91.68015043979668
 20
139.5879568166176
 30
0.0
 10
-91.68015043979668
 20
139.5879568166176
 30
0.0
 10
-23.73868523616365
 20
121.6857898817972
 30
0.0
 10
-23.73868523616365
 20
121.6857898817972
 30
0.0
 10
-19.33842040521359
 20
120.5279990135087
 30
0.0
 10
-15.77379630087816
 20
115.8991604216144
 30
0.0
 10
-15.77379630087816
 20
111.349949012932
 30
0.0
 10
-15.77379630087816
 20
111.349949012932
 30
0.0
 10
-15.77379630087816
 20
88.49660990459998
 30
0.0
 10
-15.77379630087816
 20
88.49660990459998
 30
0.0
 10
-15.77379630087816
 20
86.2220042002581
 30
0.0
 10
-17.61713648462187
 20
84.33899568342066
 30
0.0
 10
-19.89028908074957
 20
84.2907543972427
 30
0.0
 10
-19.89028908074957
 20
84.2907543972427
 30
0.0
 10
-28.48771428826847
 20
83.96730529171879
 30
0.0
 10
-28.48771428826847
 20
83.96730529171879
 30
0.0
 10
-28.48771428826847
 20
83.96730529171879
 30
0.0
 10
-28.489167339057
 20
79.96730529271906
 30
0.0
 10
-28.489167339057
 20
79.96730529271906
 30
0.0
 10
-28.489167339057
 20
79.96730529271906
 30
0.0
 10
-19.89028908074957
 20
79.64080478053988
 30
0.0
 10
-19.89028908074957
 20
79.64080478053988
 30
0.0
 10
-17.61568343387024
 20
79.59256349436127
 30
0.0
 10
-15.77379630087816
 20
77.70955497752479
 30
0.0
 10
-15.77379630087816
 20
75.43712884936572
 30
0.0
 10
-15.77379630087816
 20
75.43712884936572
 30
0.0
 10
-15.77379630087816
 20
72.65103612424038
 30
0.0
 10
-15.77379630087816
 20
72.65103612424038
 30
0.0
 10
-15.77379630087816
 20
72.65103612424038
 30
0.0
 10
-15.79477758597671
 20
72.65108258098371
 30
0.0
 10
-15.79477758597671
 20
72.65108258098371
 30
0.0
 10
-56.60386042871257
 20
31.84775389526887
 30
0.0
 10
-58.02231451826513
 20
-30.88330759984238
 30
0.0
 10
-15.77379630087816
 20
-73.13778269862408
 30
0.0
 10
-15.77379630087816
 20
-73.13778269862408
 30
0.0
 10
-15.77365249854134
 20
-73.13793642279015
 30
0.0
 10
-15.77365249854134
 20
-73.13793642279015
 30
0.0
  0
ENDBLK
  5
5A
330
57
100
AcDbEntity
  8
0
100
AcDbBlockEnd
  0
BLOCK
  5
5D
330
5B
100
AcDbEntity
  8
0
100
AcDbBlockBegin
  2
block 6
 70
     0
 10
0.0
 20
0.0
 30
0.0
  3
block 6
  1

  0
SPLINE
  5
5F
330
5B
100
AcDbEntity
  8
cut
370
     0
100
AcDbSpline
210
0.0
220
0.0
230
1.0
 70
    11
 71
     3
 72
    23
 73
    19
 74
     0
 42
0.0000000001
 43
0.0000000001
 12
1.0
 22
0.0
 32
0.0
 13
1.0
 23
0.0
 33
0.0
 40
0.0
 40
0.0
 40
0.0
 40
0.0
 40
1.0
 40
1.0
 40
1.0
 40
2.0
 40
2.0
 40
2.0
 40
3.0
 40
3.0
 40
3.0
 40
4.0
 40
4.0
 40
4.0
 40
5.0
 40
5.0
 40
5.0
 40
6.0
 40
6.0
 40
6.0
 40
6.0
 10
-66.60935807317841
 20
-35.71680861456976
 30
0.0
 10
-66.60935807317841
 20
-35.71680861456976
 30
0.0
 10
-128.2505317612977
 20
-69.62796261185515
 30
0.0
 10
-128.2505317612977
 20
-69.62796261185515
 30
0.0
 10
-130.244117392778
 20
-70.72632370289361
 30
0.0
 10
-130.0186039160978
 20
-71.68838862996972
 30
0.0
 10
-127.7453060148947
 20
-71.77920430425134
 30
0.0
 10
-127.7453060148947
 20
-71.77920430425134
 30
0.0
 10
-78.08337333483013
 20
-73.78572213811236
 30
0.0
 10
-78.08337333483013
 20
-73.78572213811236
 30
0.0
 10
-75.80862238287419
 20
-73.87929860889155
 30
0.0
 10
-73.48156160385399
 20
-72.17646838983201
 30
0.0
 10
-72.88275938903398
 20
-69.97989151283235
 30
0.0
 10
-72.88275938903398
 20
-69.97989151283235
 30
0.0
 10
-64.08642605281455
 20
-37.70341965262789
 30
0.0
 10
-64.08642605281455
 20
-37.70341965262789
 30
0.0
 10
-63.48617078724194
 20
-35.50974887720594
 30
0.0
 10
-64.61708018737441
 20
-34.6185928286108
 30
0.0
 10
-66.60935807317841
 20
-35.71680861456976
 30
0.0
  0
SPLINE
  5
60
330
5B
100
AcDbEntity
  8
cut
370
     0
100
AcDbSpline
210
0.0
220
0.0
230
1.0
 70
    11
 71
     3
 72
    23
 73
    19
 74
     0
 42
0.0000000001
 43
0.0000000001
 12
1.0
 22
0.0
 32
0.0
 13
1.0
 23
0.0
 33
0.0
 40
0.0
 40
0.0
 40
0.0
 40
0.0
 40
1.0
 40
1.0
 40
1.0
 40
2.0
 40
2.0
 40
2.0
 40
3.0
 40
3.0
 40
3.0
 40
4.0
 40
4.0
 40
4.0
 40
5.0
 40
5.0
 40
5.0
 40
6.0
 40
6.0
 40
6.0
 40
6.0
 10
-137.3326426450889
 20
51.3715222672795
 30
0.0
 10
-137.3326426450889
 20
51.3715222672795
 30
0.0
 10
-68.26676953882848
 20
12.13158933074407
 30
0.0
 10
-68.26676953882848
 20
12.13158933074407
 30
0.0
 10
-66.71505916267292
 20
11.24989682631544
 30
0.0
 10
-65.76109867357874
 20
11.94898152310414
 30
0.0
 10
-66.13725706932603
 20
13.69219076294955
 30
0.0
 10
-66.13725706932603
 20
13.69219076294955
 30
0.0
 10
-73.90709370197519
 20
49.80978096111758
 30
0.0
 10
-73.90709370197519
 20
49.80978096111758
 30
0.0
 10
-74.28335986522866
 20
51.55401608752454
 30
0.0
 10
-76.03444041101773
 20
52.96882764084803
 30
0.0
 10
-77.81765918164659
 20
52.96882764084803
 30
0.0
 10
-77.81765918164659
 20
52.96882764084803
 30
0.0
 10
-136.9119151788155
 20
52.96780175428712
 30
0.0
 10
-136.9119151788155
 20
52.96780175428712
 30
0.0
 10
-138.6951339494447
 20
52.96882764084803
 30
0.0
 10
-138.8844670086374
 20
52.25424065826711
 30
0.0
 10
-137.3326426450889
 20
51.3715222672795
 30
0.0
  0
SPLINE
  5
61
330
5B
100
AcDbEntity
  8
cut
370
     0
100
AcDbSpline
210
0.0
220
0.0
230
1.0
 70
    11
 71
     3
 72
    23
 73
    19
 74
     0
 42
0.0000000001
 43
0.0000000001
 12
1.0
 22
0.0
 32
0.0
 13
1.0
 23
0.0
 33
0.0
 40
0.0
 40
0.0
 40
0.0
 40
0.0
 40
1.0
 40
1.0
 40
1.0
 40
2.0
 40
2.0
 40
2.0
 40
3.0
 40
3.0
 40
3.0
 40
4.0
 40
4.0
 40
4.0
 40
5.0
 40
5.0
 40
5.0
 40
6.0
 40
6.0
 40
6.0
 40
6.0
 10
-36.54646454364864
 20
109.825844040857
 30
0.0
 10
-36.54646454364864
 20
109.825844040857
 30
0.0
 10
-84.69722444183313
 20
128.5197783503412
 30
0.0
 10
-84.69722444183313
 20
128.5197783503412
 30
0.0
 10
-86.81722548872129
 20
129.3442393677444
 30
0.0
 10
-87.44450749827685
 20
128.5268982992047
 30
0.0
 10
-86.09490677449854
 20
126.6948918650447
 30
0.0
 10
-86.09490677449854
 20
126.6948918650447
 30
0.0
 10
-65.44575503113049
 20
98.65842220572546
 30
0.0
 10
-65.44575503113049
 20
98.65842220572546
 30
0.0
 10
-64.09630679792629
 20
96.82932187314253
 30
0.0
 10
-61.3065946595307
 20
96.07010283614285
 30
0.0
 10
-59.21492023775933
 20
96.96547273202665
 30
0.0
 10
-59.21492023775933
 20
96.96547273202665
 30
0.0
 10
-36.49124861507949
 20
106.7139904721742
 30
0.0
 10
-36.49124861507949
 20
106.7139904721742
 30
0.0
 10
-34.40103510860447
 20
107.6093603680573
 30
0.0
 10
-34.42660880183676
 20
109.0042891250322
 30
0.0
 10
-36.54646454364864
 20
109.825844040857
 30
0.0
  0
SPLINE
  5
62
330
5B
100
AcDbEntity
  8
cut
370
     0
100
AcDbSpline
210
0.0
220
0.0
230
1.0
 70
    11
 71
     3
 72
    23
 73
    19
 74
     0
 42
0.0000000001
 43
0.0000000001
 12
1.0
 22
0.0
 32
0.0
 13
1.0
 23
0.0
 33
0.0
 40
0.0
 40
0.0
 40
0.0
 40
0.0
 40
1.0
 40
1.0
 40
1.0
 40
2.0
 40
2.0
 40
2.0
 40
3.0
 40
3.0
 40
3.0
 40
4.0
 40
4.0
 40
4.0
 40
5.0
 40
5.0
 40
5.0
 40
6.0
 40
6.0
 40
6.0
 40
6.0
 10
-76.5025994219376
 20
-134.6349847036773
 30
0.0
 10
-76.5025994219376
 20
-134.6349847036773
 30
0.0
 10
-50.65704039445482
 20
-123.5101372566494
 30
0.0
 10
-50.65704039445482
 20
-123.5101372566494
 30
0.0
 10
-48.56827993873112
 20
-122.6104082084022
 30
0.0
 10
-47.53384494888738
 20
-120.1583850027826
 30
0.0
 10
-48.34683500415549
 20
-118.035623105841
 30
0.0
 10
-48.34683500415549
 20
-118.035623105841
 30
0.0
 10
-54.18039785743905
 20
-102.8069243168063
 30
0.0
 10
-54.18039785743905
 20
-102.8069243168063
 30
0.0
 10
-54.99483280382718
 20
-100.6841624198646
 30
0.0
 10
-56.66932849021084
 20
-100.5025310713001
 30
0.0
 10
-57.92374720424662
 20
-102.4010872315749
 30
0.0
 10
-57.92374720424662
 20
-102.4010872315749
 30
0.0
 10
-78.01813135607327
 20
-132.8272442176854
 30
0.0
 10
-78.01813135607327
 20
-132.8272442176854
 30
0.0
 10
-79.27109701935677
 20
-134.7258003779595
 30
0.0
 10
-78.59280555339605
 20
-135.5347137519283
 30
0.0
 10
-76.5025994219376
 20
-134.6349847036773
 30
0.0
  0
ENDBLK
  5
5E
330
5B
100
AcDbEntity
  8
0
100
AcDbBlockEnd
  0
BLOCK
  5
66
330
64
100
AcDbEntity
  8
0
100
AcDbBlockBegin
  2
block 7
 70
     0
 10
0.0
 20
0.0
 30
0.0
  3
block 7
  1

  0
INSERT
  5
69
330
64
100
AcDbEntity
  8
cut
100
AcDbBlockReference
  2
block 8
 10
0.0
 20
0.0
 30
0.0
  0
SPLINE
  5
71
330
64
100
AcDbEntity
  8
cut
370
     0
100
AcDbSpline
210
0.0
220
0.0
230
1.0
 70
    11
 71
     3
 72
   116
 73
   112
 74
     0
 42
0.0000000001
 43
0.0000000001
 12
1.0
 22
0.0
 32
0.0
 13
1.0
 23
0.0
 33
0.0
 40
0.0
 40
0.0
 40
0.0
 40
0.0
 40
1.0
 40
1.0
 40
1.0
 40
2.0
 40
2.0
 40
2.0
 40
3.0
 40
3.0
 40
3.0
 40
4.0
 40
4.0
 40
4.0
 40
5.0
 40
5.0
 40
5.0
 40
6.0
 40
6.0
 40
6.0
 40
7.0
 40
7.0
 40
7.0
 40
8.0
 40
8.0
 40
8.0
 40
9.0
 40
9.0
 40
9.0
 40
10.0
 40
10.0
 40
10.0
 40
11.0
 40
11.0
 40
11.0
 40
12.0
 40
12.0
 40
12.0
 40
13.0
 40
13.0
 40
13.0
 40
14.0
 40
14.0
 40
14.0
 40
15.0
 40
15.0
 40
15.0
 40
16.0
 40
16.0
 40
16.0
 40
17.0
 40
17.0
 40
17.0
 40
18.0
 40
18.0
 40
18.0
 40
19.0
 40
19.0
 40
19.0
 40
20.0
 40
20.0
 40
20.0
 40
21.0
 40
21.0
 40
21.0
 40
22.0
 40
22.0
 40
22.0
 40
23.0
 40
23.0
 40
23.0
 40
24.0
 40
24.0
 40
24.0
 40
25.0
 40
25.0
 40
25.0
 40
26.0
 40
26.0
 40
26.0
 40
27.0
 40
27.0
 40
27.0
 40
28.0
 40
28.0
 40
28.0
 40
29.0
 40
29.0
 40
29.0
 40
30.0
 40
30.0
 40
30.0
 40
31.0
 40
31.0
 40
31.0
 40
32.0
 40
32.0
 40
32.0
 40
33.0
 40
33.0
 40
33.0
 40
34.0
 40
34.0
 40
34.0
 40
35.0
 40
35.0
 40
35.0
 40
36.0
 40
36.0
 40
36.0
 40
37.0
 40
37.0
 40
37.0
 40
37.0
 10
4.490358235283194
 20
-92.6242188208558
 30
0.0
 10
4.490358235283194
 20
-92.6242188208558
 30
0.0
 10
4.490358235283194
 20
-90.09263858894948
 30
0.0
 10
4.490358235283194
 20
-90.09263858894948
 30
0.0
 10
4.490358235283194
 20
-90.09263858894948
 30
0.0
 10
4.490358235283194
 20
-90.09263858894948
 30
0.0
 10
4.490358235283194
 20
-90.09263858894948
 30
0.0
 10
46.73887645077298
 20
-47.83816348827158
 30
0.0
 10
45.29638401559496
 20
15.32723233560263
 30
0.0
 10
4.487301171027698
 20
56.1305610194851
 30
0.0
 10
4.487301171027698
 20
56.1305610194851
 30
0.0
 10
4.490358235283194
 20
58.71132574757343
 30
0.0
 10
4.490358235283194
 20
58.71132574757343
 30
0.0
 10
4.490358235283194
 20
60.98607675699191
 30
0.0
 10
6.333698465594371
 20
62.86763222304115
 30
0.0
 10
8.606851119145787
 20
62.9144204584309
 30
0.0
 10
8.606851119145787
 20
62.9144204584309
 30
0.0
 10
17.20573823542184
 20
63.24077566553122
 30
0.0
 10
17.20573823542184
 20
63.24077566553122
 30
0.0
 10
17.20573823542184
 20
63.24077566553122
 30
0.0
 10
17.20428518463235
 20
67.21875491835654
 30
0.0
 10
17.20428518463235
 20
67.21875491835654
 30
0.0
 10
17.20428518463235
 20
67.21875491835654
 30
0.0
 10
8.608304169934641
 20
67.54365707466833
 30
0.0
 10
8.608304169934641
 20
67.54365707466833
 30
0.0
 10
6.333698465594371
 20
67.59189836084758
 30
0.0
 10
4.490358235283194
 20
69.47490687768374
 30
0.0
 10
4.489050489573516
 20
71.74820483631626
 30
0.0
 10
4.489050489573516
 20
71.74820483631626
 30
0.0
 10
4.490358235283194
 20
95.65453809937488
 30
0.0
 10
4.490358235283194
 20
95.65453809937488
 30
0.0
 10
4.489050489573516
 20
100.2052025588468
 30
0.0
 10
7.42915345505544
 20
106.1195551833396
 30
0.0
 10
11.05466047747901
 20
108.8666930041061
 30
0.0
 10
11.05466047747901
 20
108.8666930041061
 30
0.0
 10
73.0037333729922
 20
155.8127297099241
 30
0.0
 10
73.0037333729922
 20
155.8127297099241
 30
0.0
 10
76.62924030382767
 20
158.5627736322671
 30
0.0
 10
79.00468767288355
 20
157.1437242322023
 30
0.0
 10
78.30794983739219
 20
152.6498740585632
 30
0.0
 10
78.30794983739219
 20
152.6498740585632
 30
0.0
 10
67.71230375520884
 20
84.20319014016654
 30
0.0
 10
67.71230375520884
 20
84.20319014016654
 30
0.0
 10
67.01702263111059
 20
79.7064338649491
 30
0.0
 10
70.09341802219656
 20
76.64848848051984
 30
0.0
 10
74.58596033663603
 20
77.36789392591312
 30
0.0
 10
74.58596033663603
 20
77.36789392591312
 30
0.0
 10
149.1739615284385
 20
89.35832372766087
 30
0.0
 10
149.1739615284385
 20
89.35832372766087
 30
0.0
 10
153.6665038428787
 20
90.08208832541975
 30
0.0
 10
154.8641082725193
 20
87.9052729391454
 30
0.0
 10
151.8501904031189
 20
84.49554395881651
 30
0.0
 10
151.8501904031189
 20
84.49554395881651
 30
0.0
 10
102.7103434205106
 20
28.93117241615794
 30
0.0
 10
102.7103434205106
 20
28.93117241615794
 30
0.0
 10
99.69496793802661
 20
25.52275118153841
 30
0.0
 10
100.7096332780139
 20
21.47585943044359
 30
0.0
 10
104.9750637599463
 20
19.88941857954542
 30
0.0
 10
104.9750637599463
 20
19.88941857954542
 30
0.0
 10
180.0980782385658
 20
-8.01947322054397
 30
0.0
 10
180.0980782385658
 20
-8.01947322054397
 30
0.0
 10
184.3636540255728
 20
-9.60446102065649
 30
0.0
 10
184.3295073329051
 20
-12.07639102207773
 30
0.0
 10
180.0229555146965
 20
-13.54077560674246
 30
0.0
 10
180.0229555146965
 20
-13.54077560674246
 30
0.0
 10
99.95898725962975
 20
-40.78257178982089
 30
0.0
 10
99.95898725962975
 20
-40.78257178982089
 30
0.0
 10
95.65083708559521
 20
-42.24986247606621
 30
0.0
 10
94.80806764954622
 20
-46.00163961201028
 30
0.0
 10
98.07743184111374
 20
-49.16609361924051
 30
0.0
 10
98.07743184111374
 20
-49.16609361924051
 30
0.0
 10
149.9344940472497
 20
-99.38425539571446
 30
0.0
 10
149.9344940472497
 20
-99.38425539571446
 30
0.0
 10
153.2038583214084
 20
-102.5485640978639
 30
0.0
 10
152.1723317547948
 20
-104.8927709349732
 30
0.0
 10
147.6315481553949
 20
-104.6203239121265
 30
0.0
 10
147.6315481553949
 20
-104.6203239121265
 30
0.0
 10
73.26194049158849
 20
-100.1476882800006
 30
0.0
 10
73.26194049158849
 20
-100.1476882800006
 30
0.0
 10
68.71984914651172
 20
-99.8752412571538
 30
0.0
 10
65.50861060755335
 20
-103.31199698215
 30
0.0
 10
66.08895909248675
 20
-107.8244462058842
 30
0.0
 10
66.08895909248675
 20
-107.8244462058842
 30
0.0
 10
75.5195454446729
 20
-181.2205117201179
 30
0.0
 10
75.5195454446729
 20
-181.2205117201179
 30
0.0
 10
76.10003922002008
 20
-185.7329609438515
 30
0.0
 10
73.58262879251177
 20
-187.2285861204706
 30
0.0
 10
69.89755051426272
 20
-184.5607848727576
 30
0.0
 10
69.89755051426272
 20
-184.5607848727576
 30
0.0
 10
11.16247684598677
 20
-142.02504792024
 30
0.0
 10
11.16247684598677
 20
-142.02504792024
 30
0.0
 10
7.47594169044455
 20
-139.3573919776048
 30
0.0
 10
4.490358235283194
 20
-133.5082813335162
 30
0.0
 10
4.489050489573516
 20
-128.956163823258
 30
0.0
 10
4.489050489573516
 20
-128.956163823258
 30
0.0
 10
4.489050489573516
 20
-105.6858794522729
 30
0.0
 10
4.489050489573516
 20
-105.6858794522729
 30
0.0
 10
4.489050489573516
 20
-103.4098206971428
 30
0.0
 10
6.333698465594371
 20
-101.5282652310935
 30
0.0
 10
8.606851119145787
 20
-101.4800239449143
 30
0.0
 10
8.606851119145787
 20
-101.4800239449143
 30
0.0
 10
17.20573823542184
 20
-101.1536687378146
 30
0.0
 10
17.20573823542184
 20
-101.1536687378146
 30
0.0
 10
17.20573823542184
 20
-101.1536687378146
 30
0.0
 10
17.20428518463235
 20
-97.15366873881489
 30
0.0
 10
17.20428518463235
 20
-97.15366873881489
 30
0.0
 10
17.20428518463235
 20
-97.15366873881489
 30
0.0
 10
8.606851119145787
 20
-96.83007432821309
 30
0.0
 10
8.606851119145787
 20
-96.83007432821309
 30
0.0
 10
6.333698465594371
 20
-96.78183304203448
 30
0.0
 10
4.491665980992873
 20
-94.90027757598524
 30
0.0
 10
4.490358235283194
 20
-92.6242188208558
 30
0.0
  0
POLYLINE
  5
72
330
64
100
AcDbEntity
  8
cut
370
     0
100
AcDb2dPolyline
 66
     1
 10
0.0
 20
0.0
 30
0.0
  0
VERTEX
  5
73
330
72
100
AcDbEntity
  8
cut
370
     0
100
AcDbVertex
100
AcDb2dVertex
 10
4.490358235283194
 20
-92.6242188208558
 30
0.0
  0
VERTEX
  5
A9
330
72
100
AcDbEntity
  8
0
100
AcDbVertex
100
AcDb2dVertex
 10
4.490358235283194
 20
-92.6242188208558
 30
0.0
  0
SEQEND
  5
74
330
72
100
AcDbEntity
  8
cut
370
     0
  0
ENDBLK
  5
67
330
64
100
AcDbEntity
  8
0
100
AcDbBlockEnd
  0
BLOCK
  5
6A
330
68
100
AcDbEntity
  8
0
100
AcDbBlockBegin
  2
block 8
 70
     0
 10
0.0
 20
0.0
 30
0.0
  3
block 8
  1

  0
SPLINE
  5
6C
330
68
100
AcDbEntity
  8
cut
370
     0
100
AcDbSpline
210
0.0
220
0.0
230
1.0
 70
    11
 71
     3
 72
    23
 73
    19
 74
     0
 42
0.0000000001
 43
0.0000000001
 12
1.0
 22
0.0
 32
0.0
 13
1.0
 23
0.0
 33
0.0
 40
0.0
 40
0.0
 40
0.0
 40
0.0
 40
1.0
 40
1.0
 40
1.0
 40
2.0
 40
2.0
 40
2.0
 40
3.0
 40
3.0
 40
3.0
 40
4.0
 40
4.0
 40
4.0
 40
5.0
 40
5.0
 40
5.0
 40
6.0
 40
6.0
 40
6.0
 40
6.0
 10
54.97544544160814
 20
18.64633362996859
 30
0.0
 10
54.97544544160814
 20
18.64633362996859
 30
0.0
 10
121.9179261361772
 20
70.46590268046643
 30
0.0
 10
121.9179261361772
 20
70.46590268046643
 30
0.0
 10
123.7157858313898
 20
71.85792533586326
 30
0.0
 10
123.3936444797126
 20
72.51208880085308
 30
0.0
 10
121.1941615567016
 20
71.92752646863424
 30
0.0
 10
121.1941615567016
 20
71.92752646863424
 30
0.0
 10
66.66364067934421
 20
57.40907890502857
 30
0.0
 10
66.66364067934421
 20
57.40907890502857
 30
0.0
 10
64.46561075155667
 20
56.82161047123235
 30
0.0
 10
62.1995780468681
 20
54.5682193084011
 30
0.0
 10
61.6006305118415
 20
52.3744032279019
 30
0.0
 10
61.6006305118415
 20
52.3744032279019
 30
0.0
 10
52.80153615691022
 20
20.09938441848405
 30
0.0
 10
52.80153615691022
 20
20.09938441848405
 30
0.0
 10
52.20418697775133
 20
17.9042605922755
 30
0.0
 10
53.17613265019011
 20
17.25285792378484
 30
0.0
 10
54.97544544160814
 20
18.64633362996859
 30
0.0
  0
SPLINE
  5
6D
330
68
100
AcDbEntity
  8
cut
370
     0
100
AcDbSpline
210
0.0
220
0.0
230
1.0
 70
    11
 71
     3
 72
    23
 73
    19
 74
     0
 42
0.0000000001
 43
0.0000000001
 12
1.0
 22
0.0
 32
0.0
 13
1.0
 23
0.0
 33
0.0
 40
0.0
 40
0.0
 40
0.0
 40
0.0
 40
1.0
 40
1.0
 40
1.0
 40
2.0
 40
2.0
 40
2.0
 40
3.0
 40
3.0
 40
3.0
 40
4.0
 40
4.0
 40
4.0
 40
5.0
 40
5.0
 40
5.0
 40
6.0
 40
6.0
 40
6.0
 40
6.0
 10
46.52101473371204
 20
-35.37911182257166
 30
0.0
 10
46.52101473371204
 20
-35.37911182257166
 30
0.0
 10
146.957477911631
 20
-11.33562573009239
 30
0.0
 10
146.957477911631
 20
-11.33562573009239
 30
0.0
 10
149.169747681258
 20
-10.80497158212678
 30
0.0
 10
149.181081477123
 20
-9.910909431954577
 30
0.0
 10
146.98014550336
 20
-9.336227845096142
 30
0.0
 10
146.98014550336
 20
-9.336227845096142
 30
0.0
 10
74.59308028531953
 20
9.598767590200982
 30
0.0
 10
74.59308028531953
 20
9.598767590200982
 30
0.0
 10
72.39069126080459
 20
10.17490222784795
 30
0.0
 10
69.66200725398434
 20
9.058232696873999
 30
0.0
 10
68.4941903647562
 20
7.105623047267178
 30
0.0
 10
68.4941903647562
 20
7.105623047267178
 30
0.0
 10
44.62957852230175
 20
-32.80212624914088
 30
0.0
 10
44.62957852230175
 20
-32.80212624914088
 30
0.0
 10
43.4616162984936
 20
-34.75473589874898
 30
0.0
 10
44.31019795898637
 20
-35.90700517404034
 30
0.0
 10
46.52101473371204
 20
-35.37911182257166
 30
0.0
  0
SPLINE
  5
6E
330
68
100
AcDbEntity
  8
cut
370
     0
100
AcDbSpline
210
0.0
220
0.0
230
1.0
 70
    11
 71
     3
 72
    23
 73
    19
 74
     0
 42
0.0000000001
 43
0.0000000001
 12
1.0
 22
0.0
 32
0.0
 13
1.0
 23
0.0
 33
0.0
 40
0.0
 40
0.0
 40
0.0
 40
0.0
 40
1.0
 40
1.0
 40
1.0
 40
2.0
 40
2.0
 40
2.0
 40
3.0
 40
3.0
 40
3.0
 40
4.0
 40
4.0
 40
4.0
 40
5.0
 40
5.0
 40
5.0
 40
6.0
 40
6.0
 40
6.0
 40
6.0
 10
34.44543615575763
 20
-72.98813477155143
 30
0.0
 10
34.44543615575763
 20
-72.98813477155143
 30
0.0
 10
119.2459111086771
 20
-89.96775976074288
 30
0.0
 10
119.2459111086771
 20
-89.96775976074288
 30
0.0
 10
121.4780876736045
 20
-90.4161712340792
 30
0.0
 10
121.849778055917
 20
-89.61873696134178
 30
0.0
 10
120.0802528503653
 20
-88.1883537651258
 30
0.0
 10
120.0802528503653
 20
-88.1883537651258
 30
0.0
 10
65.88887399890852
 20
-44.39819806688502
 30
0.0
 10
65.88887399890852
 20
-44.39819806688502
 30
0.0
 10
64.11934874865314
 20
-42.9707209722461
 30
0.0
 10
61.3396625902251
 20
-43.07287044268147
 30
0.0
 10
59.68362060655467
 20
-44.63373759970276
 30
0.0
 10
59.68362060655467
 20
-44.63373759970276
 30
0.0
 10
33.40810319783686
 20
-69.35826859676098
 30
0.0
 10
33.40810319783686
 20
-69.35826859676098
 30
0.0
 10
31.75075346845675
 20
-70.91637495728502
 30
0.0
 10
32.21616563601858
 20
-72.54248409471106
 30
0.0
 10
34.44543615575763
 20
-72.98813477155143
 30
0.0
  0
SPLINE
  5
6F
330
68
100
AcDbEntity
  8
cut
370
     0
100
AcDbSpline
210
0.0
220
0.0
230
1.0
 70
    11
 71
     3
 72
    23
 73
    19
 74
     0
 42
0.0000000001
 43
0.0000000001
 12
1.0
 22
0.0
 32
0.0
 13
1.0
 23
0.0
 33
0.0
 40
0.0
 40
0.0
 40
0.0
 40
0.0
 40
1.0
 40
1.0
 40
1.0
 40
2.0
 40
2.0
 40
2.0
 40
3.0
 40
3.0
 40
3.0
 40
4.0
 40
4.0
 40
4.0
 40
5.0
 40
5.0
 40
5.0
 40
6.0
 40
6.0
 40
6.0
 40
6.0
 10
22.17398633151142
 20
-128.6665708011052
 30
0.0
 10
22.17398633151142
 20
-128.6665708011052
 30
0.0
 10
57.58207325112497
 20
-159.8987350596075
 30
0.0
 10
57.58207325112497
 20
-159.8987350596075
 30
0.0
 10
59.28911731747189
 20
-161.4027879307982
 30
0.0
 10
60.19596631458414
 20
-160.8408931908791
 30
0.0
 10
59.61125867728612
 20
-158.641410212303
 30
0.0
 10
59.61125867728612
 20
-158.641410212303
 30
0.0
 10
49.38890107500298
 20
-120.3201017667973
 30
0.0
 10
49.38890107500298
 20
-120.3201017667973
 30
0.0
 10
48.80274038691771
 20
-118.1206187882225
 30
0.0
 10
46.5763759687538
 20
-116.9145866337549
 30
0.0
 10
44.4138004802077
 20
-117.623966028707
 30
0.0
 10
44.4138004802077
 20
-117.623966028707
 30
0.0
 10
22.99975509462425
 20
-124.6593473365405
 30
0.0
 10
22.99975509462425
 20
-124.6593473365405
 30
0.0
 10
20.83587186036752
 20
-125.3661112400739
 30
0.0
 10
20.46825001087418
 20
-127.1625179299152
 30
0.0
 10
22.17398633151142
 20
-128.6665708011052
 30
0.0
  0
SPLINE
  5
70
330
68
100
AcDbEntity
  8
cut
370
     0
100
AcDbSpline
210
0.0
220
0.0
230
1.0
 70
    11
 71
     3
 72
    23
 73
    19
 74
     0
 42
0.0000000001
 43
0.0000000001
 12
1.0
 22
0.0
 32
0.0
 13
1.0
 23
0.0
 33
0.0
 40
0.0
 40
0.0
 40
0.0
 40
0.0
 40
1.0
 40
1.0
 40
1.0
 40
2.0
 40
2.0
 40
2.0
 40
3.0
 40
3.0
 40
3.0
 40
4.0
 40
4.0
 40
4.0
 40
5.0
 40
5.0
 40
5.0
 40
6.0
 40
6.0
 40
6.0
 40
6.0
 10
59.50620310527626
 20
129.8706874571701
 30
0.0
 10
59.50620310527626
 20
129.8706874571701
 30
0.0
 10
31.64569789644721
 20
106.8972279653523
 30
0.0
 10
31.64569789644721
 20
106.8972279653523
 30
0.0
 10
29.89186559470893
 20
105.4498440749134
 30
0.0
 10
29.52002989792789
 20
102.7593752348993
 30
0.0
 10
30.81702303175635
 20
100.8919143614988
 30
0.0
 10
30.81702303175635
 20
100.8919143614988
 30
0.0
 10
42.02280540770607
 20
84.7409642369966
 30
0.0
 10
42.02280540770607
 20
84.7409642369966
 30
0.0
 10
43.31979854153485
 20
82.87074256709951
 30
0.0
 10
44.99138816864192
 20
83.09349525297819
 30
0.0
 10
45.75903490021445
 20
85.23485620001203
 30
0.0
 10
45.75903490021445
 20
85.23485620001203
 30
0.0
 10
61.29563515133259
 20
128.6135079149465
 30
0.0
 10
61.29563515133259
 20
128.6135079149465
 30
0.0
 10
62.06182883211788
 20
130.7547235569031
 30
0.0
 10
61.26148845780403
 20
131.318071347609
 30
0.0
 10
59.50620310527626
 20
129.8706874571701
 30
0.0
  0
ENDBLK
  5
6B
330
68
100
AcDbEntity
  8
0
100
AcDbBlockEnd
  0
BLOCK
  5
77
330
75
100
AcDbEntity
  8
0
100
AcDbBlockBegin
  2
block 9
 70
     0
 10
0.0
 20
0.0
 30
0.0
  3
block 9
  1

  0
INSERT
  5
7A
330
75
100
AcDbEntity
  8
cut
100
AcDbBlockReference
  2
block 10
 10
0.0
 20
0.0
 30
0.0
  0
SPLINE
  5
81
330
75
100
AcDbEntity
  8
cut
370
     0
100
AcDbSpline
210
0.0
220
0.0
230
1.0
 70
     8
 71
     3
 72
   107
 73
   103
 74
     0
 42
0.0000000001
 43
0.0000000001
 12
1.0
 22
0.0
 32
0.0
 13
1.0
 23
0.0
 33
0.0
 40
0.0
 40
0.0
 40
0.0
 40
0.0
 40
1.0
 40
1.0
 40
1.0
 40
2.0
 40
2.0
 40
2.0
 40
3.0
 40
3.0
 40
3.0
 40
4.0
 40
4.0
 40
4.0
 40
5.0
 40
5.0
 40
5.0
 40
6.0
 40
6.0
 40
6.0
 40
7.0
 40
7.0
 40
7.0
 40
8.0
 40
8.0
 40
8.0
 40
9.0
 40
9.0
 40
9.0
 40
10.0
 40
10.0
 40
10.0
 40
11.0
 40
11.0
 40
11.0
 40
12.0
 40
12.0
 40
12.0
 40
13.0
 40
13.0
 40
13.0
 40
14.0
 40
14.0
 40
14.0
 40
15.0
 40
15.0
 40
15.0
 40
16.0
 40
16.0
 40
16.0
 40
17.0
 40
17.0
 40
17.0
 40
18.0
 40
18.0
 40
18.0
 40
19.0
 40
19.0
 40
19.0
 40
20.0
 40
20.0
 40
20.0
 40
21.0
 40
21.0
 40
21.0
 40
22.0
 40
22.0
 40
22.0
 40
23.0
 40
23.0
 40
23.0
 40
24.0
 40
24.0
 40
24.0
 40
25.0
 40
25.0
 40
25.0
 40
26.0
 40
26.0
 40
26.0
 40
27.0
 40
27.0
 40
27.0
 40
28.0
 40
28.0
 40
28.0
 40
29.0
 40
29.0
 40
29.0
 40
30.0
 40
30.0
 40
30.0
 40
31.0
 40
31.0
 40
31.0
 40
32.0
 40
32.0
 40
32.0
 40
33.0
 40
33.0
 40
33.0
 40
34.0
 40
34.0
 40
34.0
 40
34.0
 10
271.5777026776502
 20
-73.13778269862408
 30
0.0
 10
271.5777026776502
 20
-73.13778269862408
 30
0.0
 10
271.5777026776502
 20
-76.24774536552414
 30
0.0
 10
271.5777026776502
 20
-76.24774536552414
 30
0.0
 10
271.5777026776502
 20
-78.52104332415634
 30
0.0
 10
269.7343624939072
 20
-80.402598790203
 30
0.0
 10
267.4612098977791
 20
-80.45084007638161
 30
0.0
 10
267.4612098977791
 20
-80.45084007638161
 30
0.0
 10
258.8637846902599
 20
-80.78010138505867
 30
0.0
 10
258.8637846902599
 20
-80.78010138505867
 30
0.0
 10
258.8637846902599
 20
-80.78010138505867
 30
0.0
 10
258.8637846902599
 20
-84.78010138405872
 30
0.0
 10
258.8637846902599
 20
-84.78010138405872
 30
0.0
 10
258.8637846902599
 20
-84.78010138405872
 30
0.0
 10
267.4612098977791
 20
-85.1064565911584
 30
0.0
 10
267.4612098977791
 20
-85.1064565911584
 30
0.0
 10
269.7358155446585
 20
-85.15193708083913
 30
0.0
 10
271.5777026776502
 20
-87.0363986484635
 30
0.0
 10
271.5777026776502
 20
-89.30955130201588
 30
0.0
 10
271.5777026776502
 20
-89.30955130201588
 30
0.0
 10
271.5777026776502
 20
-113.2592998589107
 30
0.0
 10
271.5777026776502
 20
-113.2592998589107
 30
0.0
 10
271.5777026776502
 20
-117.8085112675958
 30
0.0
 10
268.1309209892875
 20
-122.8119463527687
 30
0.0
 10
263.8795850996475
 20
-124.432388592121
 30
0.0
 10
263.8795850996475
 20
-124.432388592121
 30
0.0
 10
201.394188924727
 20
-148.2460020498562
 30
0.0
 10
201.394188924727
 20
-148.2460020498562
 30
0.0
 10
197.1428530350876
 20
-149.866444289208
 30
0.0
 10
194.6809491463
 20
-147.6272930241059
 30
0.0
 10
195.8941012189836
 20
-143.242566964684
 30
0.0
 10
195.8941012189836
 20
-143.242566964684
 30
0.0
 10
207.4163577655954
 20
-101.6064137553363
 30
0.0
 10
207.4163577655954
 20
-101.6064137553363
 30
0.0
 10
208.6309628890316
 20
-97.22183300099285
 30
0.0
 10
206.0058814008158
 20
-92.90234892197303
 30
0.0
 10
201.5559206664625
 20
-91.96019079070075
 30
0.0
 10
201.5559206664625
 20
-91.96019079070075
 30
0.0
 10
142.8862285727309
 20
-79.53544410826672
 30
0.0
 10
142.8862285727309
 20
-79.53544410826672
 30
0.0
 10
138.4348075945677
 20
-78.59328597699444
 30
0.0
 10
137.5933459041953
 20
-75.3862575816628
 30
0.0
 10
141.0017670527116
 20
-72.37524573770119
 30
0.0
 10
141.0017670527116
 20
-72.37524573770119
 30
0.0
 10
209.2213374094915
 20
-12.16445368860836
 30
0.0
 10
209.2213374094915
 20
-12.16445368860836
 30
0.0
 10
212.6297585580072
 20
-9.15329653956853
 30
0.0
 10
212.368645337907
 20
-4.608298978170562
 30
0.0
 10
208.6338689905348
 20
-2.011551914015745
 30
0.0
 10
208.6338689905348
 20
-2.011551914015745
 30
0.0
 10
132.8141166764246
 20
50.70992576091109
 30
0.0
 10
132.8141166764246
 20
50.70992576091109
 30
0.0
 10
129.0778872783005
 20
53.3052197742793
 30
0.0
 10
129.5688785018508
 20
56.51631671181882
 30
0.0
 10
133.9110246889637
 20
57.87579102955157
 30
0.0
 10
133.9110246889637
 20
57.87579102955157
 30
0.0
 10
203.1693810282112
 20
79.58422450488798
 30
0.0
 10
203.1693810282112
 20
79.58422450488798
 30
0.0
 10
207.5100795390868
 20
80.94645961912151
 30
0.0
 10
209.6852965145435
 20
85.48302948594504
 30
0.0
 10
208.0293998777833
 20
89.72157863604235
 30
0.0
 10
208.0293998777833
 20
89.72157863604235
 30
0.0
 10
190.7048210690525
 20
134.0169600934507
 30
0.0
 10
190.7048210690525
 20
134.0169600934507
 30
0.0
 10
189.0489244322923
 20
138.2540561927611
 30
0.0
 10
191.2710749470317
 20
140.750106837272
 30
0.0
 10
195.6713485387317
 20
139.5879568166176
 30
0.0
 10
195.6713485387317
 20
139.5879568166176
 30
0.0
 10
263.6128137423647
 20
121.6857898817972
 30
0.0
 10
263.6128137423647
 20
121.6857898817972
 30
0.0
 10
268.0130785733154
 20
120.5279990135087
 30
0.0
 10
271.5777026776502
 20
115.8991604216144
 30
0.0
 10
271.5777026776502
 20
111.349949012932
 30
0.0
 10
271.5777026776502
 20
111.349949012932
 30
0.0
 10
271.5777026776502
 20
88.49660990459998
 30
0.0
 10
271.5777026776502
 20
88.49660990459998
 30
0.0
 10
271.5777026776502
 20
86.2220042002581
 30
0.0
 10
269.7343624939072
 20
84.33899568342066
 30
0.0
 10
267.4612098977791
 20
84.2907543972427
 30
0.0
 10
267.4612098977791
 20
84.2907543972427
 30
0.0
 10
258.8637846902599
 20
83.96730529171879
 30
0.0
 10
258.8637846902599
 20
83.96730529171879
 30
0.0
 10
258.8637846902599
 20
83.96730529171879
 30
0.0
 10
258.862331639472
 20
79.96730529271906
 30
0.0
 10
258.862331639472
 20
79.96730529271906
 30
0.0
 10
258.862331639472
 20
79.96730529271906
 30
0.0
 10
267.4612098977791
 20
79.64080478053988
 30
0.0
 10
267.4612098977791
 20
79.64080478053988
 30
0.0
 10
269.7358155446585
 20
79.59256349436127
 30
0.0
 10
271.5777026776502
 20
77.70955497752479
 30
0.0
 10
271.5777026776502
 20
75.43712884936572
 30
0.0
 10
271.5777026776502
 20
75.43712884936572
 30
0.0
 10
271.5777026776502
 20
72.65103612424038
 30
0.0
 10
271.5777026776502
 20
72.65103612424038
 30
0.0
 10
271.5777026776502
 20
72.65103612424038
 30
0.0
 10
271.556721392552
 20
72.65108258098371
 30
0.0
 10
271.556721392552
 20
72.65108258098371
 30
0.0
 10
230.7476385498165
 20
31.84775389526887
 30
0.0
 10
229.3291844602639
 20
-30.88330759984238
 30
0.0
 10
271.5777026776502
 20
-73.13778269862408
 30
0.0
 10
271.5777026776502
 20
-73.13778269862408
 30
0.0
 10
271.577846479987
 20
-73.13793642279015
 30
0.0
 10
271.577846479987
 20
-73.13793642279015
 30
0.0
  0
ENDBLK
  5
78
330
75
100
AcDbEntity
  8
0
100
AcDbBlockEnd
  0
BLOCK
  5
7B
330
79
100
AcDbEntity
  8
0
100
AcDbBlockBegin
  2
block 10
 70
     0
 10
0.0
 20
0.0
 30
0.0
  3
block 10
  1

  0
SPLINE
  5
7D
330
79
100
AcDbEntity
  8
cut
370
     0
100
AcDbSpline
210
0.0
220
0.0
230
1.0
 70
    11
 71
     3
 72
    23
 73
    19
 74
     0
 42
0.0000000001
 43
0.0000000001
 12
1.0
 22
0.0
 32
0.0
 13
1.0
 23
0.0
 33
0.0
 40
0.0
 40
0.0
 40
0.0
 40
0.0
 40
1.0
 40
1.0
 40
1.0
 40
2.0
 40
2.0
 40
2.0
 40
3.0
 40
3.0
 40
3.0
 40
4.0
 40
4.0
 40
4.0
 40
5.0
 40
5.0
 40
5.0
 40
6.0
 40
6.0
 40
6.0
 40
6.0
 10
220.74214090535
 20
-35.71680861456976
 30
0.0
 10
220.74214090535
 20
-35.71680861456976
 30
0.0
 10
159.100967217231
 20
-69.62796261185515
 30
0.0
 10
159.100967217231
 20
-69.62796261185515
 30
0.0
 10
157.1073815857507
 20
-70.72632370289361
 30
0.0
 10
157.3328950624306
 20
-71.68838862996972
 30
0.0
 10
159.606192963634
 20
-71.77920430425134
 30
0.0
 10
159.606192963634
 20
-71.77920430425134
 30
0.0
 10
209.2681256436982
 20
-73.78572213811236
 30
0.0
 10
209.2681256436982
 20
-73.78572213811236
 30
0.0
 10
211.5428765956548
 20
-73.87929860889155
 30
0.0
 10
213.8699373746747
 20
-72.17646838983201
 30
0.0
 10
214.4687395894944
 20
-69.97989151283235
 30
0.0
 10
214.4687395894944
 20
-69.97989151283235
 30
0.0
 10
223.2650729257138
 20
-37.70341965262789
 30
0.0
 10
223.2650729257138
 20
-37.70341965262789
 30
0.0
 10
223.8653281912867
 20
-35.50974887720594
 30
0.0
 10
222.7344187911543
 20
-34.6185928286108
 30
0.0
 10
220.74214090535
 20
-35.71680861456976
 30
0.0
  0
SPLINE
  5
7E
330
79
100
AcDbEntity
  8
cut
370
     0
100
AcDbSpline
210
0.0
220
0.0
230
1.0
 70
    11
 71
     3
 72
    23
 73
    19
 74
     0
 42
0.0000000001
 43
0.0000000001
 12
1.0
 22
0.0
 32
0.0
 13
1.0
 23
0.0
 33
0.0
 40
0.0
 40
0.0
 40
0.0
 40
0.0
 40
1.0
 40
1.0
 40
1.0
 40
2.0
 40
2.0
 40
2.0
 40
3.0
 40
3.0
 40
3.0
 40
4.0
 40
4.0
 40
4.0
 40
5.0
 40
5.0
 40
5.0
 40
6.0
 40
6.0
 40
6.0
 40
6.0
 10
150.0188563334395
 20
51.3715222672795
 30
0.0
 10
150.0188563334395
 20
51.3715222672795
 30
0.0
 10
219.0847294397002
 20
12.13158933074407
 30
0.0
 10
219.0847294397002
 20
12.13158933074407
 30
0.0
 10
220.6364398158558
 20
11.24989682631544
 30
0.0
 10
221.5904003049503
 20
11.94898152310414
 30
0.0
 10
221.2142419092027
 20
13.69219076294955
 30
0.0
 10
221.2142419092027
 20
13.69219076294955
 30
0.0
 10
213.4444052765535
 20
49.80978096111758
 30
0.0
 10
213.4444052765535
 20
49.80978096111758
 30
0.0
 10
213.0681391133
 20
51.55401608752454
 30
0.0
 10
211.317058567511
 20
52.96882764084803
 30
0.0
 10
209.5338397968821
 20
52.96882764084803
 30
0.0
 10
209.5338397968821
 20
52.96882764084803
 30
0.0
 10
150.4395837997132
 20
52.96780175428712
 30
0.0
 10
150.4395837997132
 20
52.96780175428712
 30
0.0
 10
148.6563650290843
 20
52.96882764084803
 30
0.0
 10
148.4670319698913
 20
52.25424065826711
 30
0.0
 10
150.0188563334395
 20
51.3715222672795
 30
0.0
  0
SPLINE
  5
7F
330
79
100
AcDbEntity
  8
cut
370
     0
100
AcDbSpline
210
0.0
220
0.0
230
1.0
 70
    11
 71
     3
 72
    23
 73
    19
 74
     0
 42
0.0000000001
 43
0.0000000001
 12
1.0
 22
0.0
 32
0.0
 13
1.0
 23
0.0
 33
0.0
 40
0.0
 40
0.0
 40
0.0
 40
0.0
 40
1.0
 40
1.0
 40
1.0
 40
2.0
 40
2.0
 40
2.0
 40
3.0
 40
3.0
 40
3.0
 40
4.0
 40
4.0
 40
4.0
 40
5.0
 40
5.0
 40
5.0
 40
6.0
 40
6.0
 40
6.0
 40
6.0
 10
250.80503443488
 20
109.825844040857
 30
0.0
 10
250.80503443488
 20
109.825844040857
 30
0.0
 10
202.6542745366952
 20
128.5197783503412
 30
0.0
 10
202.6542745366952
 20
128.5197783503412
 30
0.0
 10
200.5342734898077
 20
129.3442393677444
 30
0.0
 10
199.9069914802522
 20
128.5268982992047
 30
0.0
 10
201.2565922040301
 20
126.6948918650447
 30
0.0
 10
201.2565922040301
 20
126.6948918650447
 30
0.0
 10
221.9057439473982
 20
98.65842220572546
 30
0.0
 10
221.9057439473982
 20
98.65842220572546
 30
0.0
 10
223.2551921806021
 20
96.82932187314253
 30
0.0
 10
226.044904318998
 20
96.07010283614285
 30
0.0
 10
228.136578740769
 20
96.96547273202665
 30
0.0
 10
228.136578740769
 20
96.96547273202665
 30
0.0
 10
250.8602503634492
 20
106.7139904721742
 30
0.0
 10
250.8602503634492
 20
106.7139904721742
 30
0.0
 10
252.9504638699242
 20
107.6093603680573
 30
0.0
 10
252.9248901766923
 20
109.0042891250322
 30
0.0
 10
250.80503443488
 20
109.825844040857
 30
0.0
  0
SPLINE
  5
80
330
79
100
AcDbEntity
  8
cut
370
     0
100
AcDbSpline
210
0.0
220
0.0
230
1.0
 70
    11
 71
     3
 72
    23
 73
    19
 74
     0
 42
0.0000000001
 43
0.0000000001
 12
1.0
 22
0.0
 32
0.0
 13
1.0
 23
0.0
 33
0.0
 40
0.0
 40
0.0
 40
0.0
 40
0.0
 40
1.0
 40
1.0
 40
1.0
 40
2.0
 40
2.0
 40
2.0
 40
3.0
 40
3.0
 40
3.0
 40
4.0
 40
4.0
 40
4.0
 40
5.0
 40
5.0
 40
5.0
 40
6.0
 40
6.0
 40
6.0
 40
6.0
 10
210.8488995565911
 20
-134.6349847036773
 30
0.0
 10
210.8488995565911
 20
-134.6349847036773
 30
0.0
 10
236.6944585840742
 20
-123.5101372566494
 30
0.0
 10
236.6944585840742
 20
-123.5101372566494
 30
0.0
 10
238.7832190397979
 20
-122.6104082084022
 30
0.0
 10
239.817654029641
 20
-120.1583850027826
 30
0.0
 10
239.0046639743732
 20
-118.035623105841
 30
0.0
 10
239.0046639743732
 20
-118.035623105841
 30
0.0
 10
233.1711011210896
 20
-102.8069243168063
 30
0.0
 10
233.1711011210896
 20
-102.8069243168063
 30
0.0
 10
232.3566661747012
 20
-100.6841624198646
 30
0.0
 10
230.6821704883175
 20
-100.5025310713001
 30
0.0
 10
229.4277517742817
 20
-102.4010872315749
 30
0.0
 10
229.4277517742817
 20
-102.4010872315749
 30
0.0
 10
209.3333676224557
 20
-132.8272442176854
 30
0.0
 10
209.3333676224557
 20
-132.8272442176854
 30
0.0
 10
208.0804019591719
 20
-134.7258003779595
 30
0.0
 10
208.7586934251323
 20
-135.5347137519283
 30
0.0
 10
210.8488995565911
 20
-134.6349847036773
 30
0.0
  0
ENDBLK
  5
7C
330
79
100
AcDbEntity
  8
0
100
AcDbBlockEnd
  0
BLOCK
  5
84
330
82
100
AcDbEntity
  8
0
100
AcDbBlockBegin
  2
block 11
 70
     0
 10
0.0
 20
0.0
 30
0.0
  3
block 11
  1

  0
INSERT
  5
87
330
82
100
AcDbEntity
  8
cut
100
AcDbBlockReference
  2
block 12
 10
0.0
 20
0.0
 30
0.0
  0
SPLINE
  5
8F
330
82
100
AcDbEntity
  8
cut
370
     0
100
AcDbSpline
210
0.0
220
0.0
230
1.0
 70
    11
 71
     3
 72
   116
 73
   112
 74
     0
 42
0.0000000001
 43
0.0000000001
 12
1.0
 22
0.0
 32
0.0
 13
1.0
 23
0.0
 33
0.0
 40
0.0
 40
0.0
 40
0.0
 40
0.0
 40
1.0
 40
1.0
 40
1.0
 40
2.0
 40
2.0
 40
2.0
 40
3.0
 40
3.0
 40
3.0
 40
4.0
 40
4.0
 40
4.0
 40
5.0
 40
5.0
 40
5.0
 40
6.0
 40
6.0
 40
6.0
 40
7.0
 40
7.0
 40
7.0
 40
8.0
 40
8.0
 40
8.0
 40
9.0
 40
9.0
 40
9.0
 40
10.0
 40
10.0
 40
10.0
 40
11.0
 40
11.0
 40
11.0
 40
12.0
 40
12.0
 40
12.0
 40
13.0
 40
13.0
 40
13.0
 40
14.0
 40
14.0
 40
14.0
 40
15.0
 40
15.0
 40
15.0
 40
16.0
 40
16.0
 40
16.0
 40
17.0
 40
17.0
 40
17.0
 40
18.0
 40
18.0
 40
18.0
 40
19.0
 40
19.0
 40
19.0
 40
20.0
 40
20.0
 40
20.0
 40
21.0
 40
21.0
 40
21.0
 40
22.0
 40
22.0
 40
22.0
 40
23.0
 40
23.0
 40
23.0
 40
24.0
 40
24.0
 40
24.0
 40
25.0
 40
25.0
 40
25.0
 40
26.0
 40
26.0
 40
26.0
 40
27.0
 40
27.0
 40
27.0
 40
28.0
 40
28.0
 40
28.0
 40
29.0
 40
29.0
 40
29.0
 40
30.0
 40
30.0
 40
30.0
 40
31.0
 40
31.0
 40
31.0
 40
32.0
 40
32.0
 40
32.0
 40
33.0
 40
33.0
 40
33.0
 40
34.0
 40
34.0
 40
34.0
 40
35.0
 40
35.0
 40
35.0
 40
36.0
 40
36.0
 40
36.0
 40
37.0
 40
37.0
 40
37.0
 40
37.0
 10
281.495638495013
 20
-79.96374325514212
 30
0.0
 10
281.495638495013
 20
-79.96374325514212
 30
0.0
 10
281.495638495013
 20
-77.43216302323613
 30
0.0
 10
281.495638495013
 20
-77.43216302323613
 30
0.0
 10
281.495638495013
 20
-77.43216302323613
 30
0.0
 10
281.495638495013
 20
-77.43216302323613
 30
0.0
 10
281.495638495013
 20
-77.43216302323613
 30
0.0
 10
323.7441567105031
 20
-35.17768792255789
 30
0.0
 10
322.3016642753251
 20
27.98770790131631
 30
0.0
 10
281.4925814307582
 20
68.79103658519878
 30
0.0
 10
281.4925814307582
 20
68.79103658519878
 30
0.0
 10
281.495638495013
 20
71.37180131328711
 30
0.0
 10
281.495638495013
 20
71.37180131328711
 30
0.0
 10
281.495638495013
 20
73.64655232270559
 30
0.0
 10
283.3389787253242
 20
75.52810778875482
 30
0.0
 10
285.6121313788759
 20
75.5748960241449
 30
0.0
 10
285.6121313788759
 20
75.5748960241449
 30
0.0
 10
294.2110184951523
 20
75.90125123124459
 30
0.0
 10
294.2110184951523
 20
75.90125123124459
 30
0.0
 10
294.2110184951523
 20
75.90125123124459
 30
0.0
 10
294.2095654443625
 20
79.87923048407053
 30
0.0
 10
294.2095654443625
 20
79.87923048407053
 30
0.0
 10
294.2095654443625
 20
79.87923048407053
 30
0.0
 10
285.6135844296651
 20
80.20413264038234
 30
0.0
 10
285.6135844296651
 20
80.20413264038234
 30
0.0
 10
283.3389787253242
 20
80.25237392656126
 30
0.0
 10
281.495638495013
 20
82.1353824433971
 30
0.0
 10
281.4943307493036
 20
84.40868040202994
 30
0.0
 10
281.4943307493036
 20
84.40868040202994
 30
0.0
 10
281.495638495013
 20
108.3150136650886
 30
0.0
 10
281.495638495013
 20
108.3150136650886
 30
0.0
 10
281.4943307493036
 20
112.8656781245605
 30
0.0
 10
284.4344337147855
 20
118.7800307490536
 30
0.0
 10
288.0599407372092
 20
121.5271685698198
 30
0.0
 10
288.0599407372092
 20
121.5271685698198
 30
0.0
 10
350.009013632722
 20
168.4732052756378
 30
0.0
 10
350.009013632722
 20
168.4732052756378
 30
0.0
 10
353.6345205635597
 20
171.2232491979808
 30
0.0
 10
356.009967932613
 20
169.8041997979157
 30
0.0
 10
355.313230097122
 20
165.3103496242772
 30
0.0
 10
355.313230097122
 20
165.3103496242772
 30
0.0
 10
344.7175840149383
 20
96.86366570588022
 30
0.0
 10
344.7175840149383
 20
96.86366570588022
 30
0.0
 10
344.0223028908407
 20
92.36690943066279
 30
0.0
 10
347.098698281926
 20
89.3089640462332
 30
0.0
 10
351.5912405963662
 20
90.0283694916268
 30
0.0
 10
351.5912405963662
 20
90.0283694916268
 30
0.0
 10
426.1792417881706
 20
102.0187992933745
 30
0.0
 10
426.1792417881706
 20
102.0187992933745
 30
0.0
 10
430.6717841026069
 20
102.7425638911334
 30
0.0
 10
431.8693885322501
 20
100.5657485048591
 30
0.0
 10
428.8554706628503
 20
97.1560195245302
 30
0.0
 10
428.8554706628503
 20
97.1560195245302
 30
0.0
 10
379.7156236802392
 20
41.59164798187162
 30
0.0
 10
379.7156236802392
 20
41.59164798187162
 30
0.0
 10
376.700248197758
 20
38.18322674725209
 30
0.0
 10
377.7149135377437
 20
34.13633499615727
 30
0.0
 10
381.980344019678
 20
32.5498941452591
 30
0.0
 10
381.980344019678
 20
32.5498941452591
 30
0.0
 10
457.1033584982953
 20
4.641002345169712
 30
0.0
 10
457.1033584982953
 20
4.641002345169712
 30
0.0
 10
461.3689342853036
 20
3.056014545057191
 30
0.0
 10
461.3347875926339
 20
0.5840845436359469
 30
0.0
 10
457.0282357744273
 20
-0.8803000410287799
 30
0.0
 10
457.0282357744273
 20
-0.8803000410287799
 30
0.0
 10
376.9642675193615
 20
-28.12209622410721
 30
0.0
 10
376.9642675193615
 20
-28.12209622410721
 30
0.0
 10
372.6561173453256
 20
-29.58938691035285
 30
0.0
 10
371.8133479092747
 20
-33.3411640462966
 30
0.0
 10
375.0827121008429
 20
-36.50561805352682
 30
0.0
 10
375.0827121008429
 20
-36.50561805352682
 30
0.0
 10
426.9397743069805
 20
-86.72377983000078
 30
0.0
 10
426.9397743069805
 20
-86.72377983000078
 30
0.0
 10
430.2091385811373
 20
-89.88808853215023
 30
0.0
 10
429.1776120145242
 20
-92.23229536925955
 30
0.0
 10
424.636828415126
 20
-91.95984834641278
 30
0.0
 10
424.636828415126
 20
-91.95984834641278
 30
0.0
 10
350.2672207513183
 20
-87.4872127142869
 30
0.0
 10
350.2672207513183
 20
-87.4872127142869
 30
0.0
 10
345.7251294062415
 20
-87.21476569144012
 30
0.0
 10
342.5138908672838
 20
-90.65152141643667
 30
0.0
 10
343.0942393522168
 20
-95.16397064017056
 30
0.0
 10
343.0942393522168
 20
-95.16397064017056
 30
0.0
 10
352.5248257044027
 20
-168.5600361544045
 30
0.0
 10
352.5248257044027
 20
-168.5600361544045
 30
0.0
 10
353.1053194797502
 20
-173.0724853781375
 30
0.0
 10
350.5879090522422
 20
-174.5681105547566
 30
0.0
 10
346.9028307739928
 20
-171.9003093070436
 30
0.0
 10
346.9028307739928
 20
-171.9003093070436
 30
0.0
 10
288.1677571057169
 20
-129.364572354526
 30
0.0
 10
288.1677571057169
 20
-129.364572354526
 30
0.0
 10
284.481221950175
 20
-126.6969164118908
 30
0.0
 10
281.495638495013
 20
-120.8478057678022
 30
0.0
 10
281.4943307493036
 20
-116.2956882575446
 30
0.0
 10
281.4943307493036
 20
-116.2956882575446
 30
0.0
 10
281.4943307493036
 20
-93.02540388655919
 30
0.0
 10
281.4943307493036
 20
-93.02540388655919
 30
0.0
 10
281.4943307493036
 20
-90.7493451314291
 30
0.0
 10
283.3389787253242
 20
-88.86778966537986
 30
0.0
 10
285.6121313788759
 20
-88.81954837920094
 30
0.0
 10
285.6121313788759
 20
-88.81954837920094
 30
0.0
 10
294.2110184951523
 20
-88.49319317210062
 30
0.0
 10
294.2110184951523
 20
-88.49319317210062
 30
0.0
 10
294.2110184951523
 20
-88.49319317210062
 30
0.0
 10
294.2095654443625
 20
-84.4931931731012
 30
0.0
 10
294.2095654443625
 20
-84.4931931731012
 30
0.0
 10
294.2095654443625
 20
-84.4931931731012
 30
0.0
 10
285.6121313788759
 20
-84.1695987624994
 30
0.0
 10
285.6121313788759
 20
-84.1695987624994
 30
0.0
 10
283.3389787253242
 20
-84.1213574763208
 30
0.0
 10
281.496946240723
 20
-82.23980201027156
 30
0.0
 10
281.495638495013
 20
-79.96374325514212
 30
0.0
  0
POLYLINE
  5
90
330
82
100
AcDbEntity
  8
cut
370
     0
100
AcDb2dPolyline
 66
     1
 10
0.0
 20
0.0
 30
0.0
  0
VERTEX
  5
91
330
90
100
AcDbEntity
  8
cut
370
     0
100
AcDbVertex
100
AcDb2dVertex
 10
281.495638495013
 20
-79.96374325514212
 30
0.0
  0
VERTEX
  5
AA
330
90
100
AcDbEntity
  8
0
100
AcDbVertex
100
AcDb2dVertex
 10
281.495638495013
 20
-79.96374325514212
 30
0.0
  0
SEQEND
  5
92
330
90
100
AcDbEntity
  8
cut
370
     0
  0
ENDBLK
  5
85
330
82
100
AcDbEntity
  8
0
100
AcDbBlockEnd
  0
BLOCK
  5
88
330
86
100
AcDbEntity
  8
0
100
AcDbBlockBegin
  2
block 12
 70
     0
 10
0.0
 20
0.0
 30
0.0
  3
block 12
  1

  0
SPLINE
  5
8A
330
86
100
AcDbEntity
  8
cut
370
     0
100
AcDbSpline
210
0.0
220
0.0
230
1.0
 70
    11
 71
     3
 72
    23
 73
    19
 74
     0
 42
0.0000000001
 43
0.0000000001
 12
1.0
 22
0.0
 32
0.0
 13
1.0
 23
0.0
 33
0.0
 40
0.0
 40
0.0
 40
0.0
 40
0.0
 40
1.0
 40
1.0
 40
1.0
 40
2.0
 40
2.0
 40
2.0
 40
3.0
 40
3.0
 40
3.0
 40
4.0
 40
4.0
 40
4.0
 40
5.0
 40
5.0
 40
5.0
 40
6.0
 40
6.0
 40
6.0
 40
6.0
 10
331.9807257013383
 20
31.30680919568227
 30
0.0
 10
331.9807257013383
 20
31.30680919568227
 30
0.0
 10
398.9232063959054
 20
83.12637824618011
 30
0.0
 10
398.9232063959054
 20
83.12637824618011
 30
0.0
 10
400.7210660911177
 20
84.51840090157694
 30
0.0
 10
400.3989247394437
 20
85.17256436656676
 30
0.0
 10
398.1994418164336
 20
84.5880020343476
 30
0.0
 10
398.1994418164336
 20
84.5880020343476
 30
0.0
 10
343.6689209390743
 20
70.06955447074226
 30
0.0
 10
343.6689209390743
 20
70.06955447074226
 30
0.0
 10
341.4708910112868
 20
69.4820860369457
 30
0.0
 10
339.2048583065979
 20
67.22869487411478
 30
0.0
 10
338.605910771571
 20
65.03487879361559
 30
0.0
 10
338.605910771571
 20
65.03487879361559
 30
0.0
 10
329.8068164166403
 20
32.75985998419774
 30
0.0
 10
329.8068164166403
 20
32.75985998419774
 30
0.0
 10
329.2094672374811
 20
30.56473615798918
 30
0.0
 10
330.1814129099199
 20
29.91333348949852
 30
0.0
 10
331.9807257013383
 20
31.30680919568227
 30
0.0
  0
SPLINE
  5
8B
330
86
100
AcDbEntity
  8
cut
370
     0
100
AcDbSpline
210
0.0
220
0.0
230
1.0
 70
    11
 71
     3
 72
    23
 73
    19
 74
     0
 42
0.0000000001
 43
0.0000000001
 12
1.0
 22
0.0
 32
0.0
 13
1.0
 23
0.0
 33
0.0
 40
0.0
 40
0.0
 40
0.0
 40
0.0
 40
1.0
 40
1.0
 40
1.0
 40
2.0
 40
2.0
 40
2.0
 40
3.0
 40
3.0
 40
3.0
 40
4.0
 40
4.0
 40
4.0
 40
5.0
 40
5.0
 40
5.0
 40
6.0
 40
6.0
 40
6.0
 40
6.0
 10
323.5262949934421
 20
-22.71863625685798
 30
0.0
 10
323.5262949934421
 20
-22.71863625685798
 30
0.0
 10
423.9627581713624
 20
1.324849835621288
 30
0.0
 10
423.9627581713624
 20
1.324849835621288
 30
0.0
 10
426.1750279409875
 20
1.855503983586898
 30
0.0
 10
426.1863617368518
 20
2.749566133759104
 30
0.0
 10
423.9854257630905
 20
3.32424772061754
 30
0.0
 10
423.9854257630905
 20
3.32424772061754
 30
0.0
 10
351.5983605450493
 20
22.25924315591466
 30
0.0
 10
351.5983605450493
 20
22.25924315591466
 30
0.0
 10
349.3959715205347
 20
22.83537779356163
 30
0.0
 10
346.6672875137145
 20
21.71870826258768
 30
0.0
 10
345.4994706244863
 20
19.76609861298086
 30
0.0
 10
345.4994706244863
 20
19.76609861298086
 30
0.0
 10
321.6348587820322
 20
-20.14165068342719
 30
0.0
 10
321.6348587820322
 20
-20.14165068342719
 30
0.0
 10
320.4668965582241
 20
-22.0942603330353
 30
0.0
 10
321.3154782187162
 20
-23.24652960832666
 30
0.0
 10
323.5262949934421
 20
-22.71863625685798
 30
0.0
  0
SPLINE
  5
8C
330
86
100
AcDbEntity
  8
cut
370
     0
100
AcDbSpline
210
0.0
220
0.0
230
1.0
 70
    11
 71
     3
 72
    23
 73
    19
 74
     0
 42
0.0000000001
 43
0.0000000001
 12
1.0
 22
0.0
 32
0.0
 13
1.0
 23
0.0
 33
0.0
 40
0.0
 40
0.0
 40
0.0
 40
0.0
 40
1.0
 40
1.0
 40
1.0
 40
2.0
 40
2.0
 40
2.0
 40
3.0
 40
3.0
 40
3.0
 40
4.0
 40
4.0
 40
4.0
 40
5.0
 40
5.0
 40
5.0
 40
6.0
 40
6.0
 40
6.0
 40
6.0
 10
311.450716415488
 20
-60.32765920583774
 30
0.0
 10
311.450716415488
 20
-60.32765920583774
 30
0.0
 10
396.2511913684082
 20
-77.3072841950292
 30
0.0
 10
396.2511913684082
 20
-77.3072841950292
 30
0.0
 10
398.4833679333333
 20
-77.75569566836552
 30
0.0
 10
398.8550583156485
 20
-76.95826139562777
 30
0.0
 10
397.0855331100942
 20
-75.52787819941211
 30
0.0
 10
397.0855331100942
 20
-75.52787819941211
 30
0.0
 10
342.8941542586389
 20
-31.73772250117133
 30
0.0
 10
342.8941542586389
 20
-31.73772250117133
 30
0.0
 10
341.1246290083839
 20
-30.31024540653242
 30
0.0
 10
338.3449428499552
 20
-30.41239487696779
 30
0.0
 10
336.6889008662848
 20
-31.97326203398908
 30
0.0
 10
336.6889008662848
 20
-31.97326203398908
 30
0.0
 10
310.4133834575673
 20
-56.69779303104729
 30
0.0
 10
310.4133834575673
 20
-56.69779303104729
 30
0.0
 10
308.7560337281869
 20
-58.25589939157134
 30
0.0
 10
309.2214458957487
 20
-59.88200852899705
 30
0.0
 10
311.450716415488
 20
-60.32765920583774
 30
0.0
  0
SPLINE
  5
8D
330
86
100
AcDbEntity
  8
cut
370
     0
100
AcDbSpline
210
0.0
220
0.0
230
1.0
 70
    11
 71
     3
 72
    23
 73
    19
 74
     0
 42
0.0000000001
 43
0.0000000001
 12
1.0
 22
0.0
 32
0.0
 13
1.0
 23
0.0
 33
0.0
 40
0.0
 40
0.0
 40
0.0
 40
0.0
 40
1.0
 40
1.0
 40
1.0
 40
2.0
 40
2.0
 40
2.0
 40
3.0
 40
3.0
 40
3.0
 40
4.0
 40
4.0
 40
4.0
 40
5.0
 40
5.0
 40
5.0
 40
6.0
 40
6.0
 40
6.0
 40
6.0
 10
299.1792665912412
 20
-116.0060952353912
 30
0.0
 10
299.1792665912412
 20
-116.0060952353912
 30
0.0
 10
334.5873535108551
 20
-147.2382594938941
 30
0.0
 10
334.5873535108551
 20
-147.2382594938941
 30
0.0
 10
336.294397577202
 20
-148.7423123650848
 30
0.0
 10
337.2012465743146
 20
-148.1804176251651
 30
0.0
 10
336.6165389370159
 20
-145.980934646589
 30
0.0
 10
336.6165389370159
 20
-145.980934646589
 30
0.0
 10
326.3941813347337
 20
-107.6596262010833
 30
0.0
 10
326.3941813347337
 20
-107.6596262010833
 30
0.0
 10
325.8080206466472
 20
-105.4601432225095
 30
0.0
 10
323.5816562284842
 20
-104.2541110680412
 30
0.0
 10
321.4190807399375
 20
-104.9634904629933
 30
0.0
 10
321.4190807399375
 20
-104.9634904629933
 30
0.0
 10
300.0050353543544
 20
-111.9988717708272
 30
0.0
 10
300.0050353543544
 20
-111.9988717708272
 30
0.0
 10
297.8411521200977
 20
-112.7056356743599
 30
0.0
 10
297.4735302706043
 20
-114.5020423642018
 30
0.0
 10
299.1792665912412
 20
-116.0060952353912
 30
0.0
  0
SPLINE
  5
8E
330
86
100
AcDbEntity
  8
cut
370
     0
100
AcDbSpline
210
0.0
220
0.0
230
1.0
 70
    11
 71
     3
 72
    23
 73
    19
 74
     0
 42
0.0000000001
 43
0.0000000001
 12
1.0
 22
0.0
 32
0.0
 13
1.0
 23
0.0
 33
0.0
 40
0.0
 40
0.0
 40
0.0
 40
0.0
 40
1.0
 40
1.0
 40
1.0
 40
2.0
 40
2.0
 40
2.0
 40
3.0
 40
3.0
 40
3.0
 40
4.0
 40
4.0
 40
4.0
 40
5.0
 40
5.0
 40
5.0
 40
6.0
 40
6.0
 40
6.0
 40
6.0
 10
336.5114833650067
 20
142.5311630228838
 30
0.0
 10
336.5114833650067
 20
142.5311630228838
 30
0.0
 10
308.6509781561776
 20
119.557703531066
 30
0.0
 10
308.6509781561776
 20
119.557703531066
 30
0.0
 10
306.8971458544387
 20
118.1103196406274
 30
0.0
 10
306.5253101576577
 20
115.4198508006133
 30
0.0
 10
307.8223032914862
 20
113.5523899272125
 30
0.0
 10
307.8223032914862
 20
113.5523899272125
 30
0.0
 10
319.0280856674362
 20
97.40143980271027
 30
0.0
 10
319.0280856674362
 20
97.40143980271027
 30
0.0
 10
320.3250788012646
 20
95.5312181328132
 30
0.0
 10
321.9966684283721
 20
95.75397081869187
 30
0.0
 10
322.7643151599446
 20
97.89533176572571
 30
0.0
 10
322.7643151599446
 20
97.89533176572571
 30
0.0
 10
338.3009154110624
 20
141.2739834806601
 30
0.0
 10
338.3009154110624
 20
141.2739834806601
 30
0.0
 10
339.0671090918477
 20
143.4151991226168
 30
0.0
 10
338.2667687175341
 20
143.9785469133227
 30
0.0
 10
336.5114833650067
 20
142.5311630228838
 30
0.0
  0
ENDBLK
  5
89
330
86
100
AcDbEntity
  8
0
100
AcDbBlockEnd
  0
BLOCK
  5
95
330
93
100
AcDbEntity
  8
0
100
AcDbBlockBegin
  2
block 13
 70
     0
 10
0.0
 20
0.0
 30
0.0
  3
block 13
  1

  0
INSERT
  5
98
330
93
100
AcDbEntity
  8
cut
100
AcDbBlockReference
  2
block 14
 10
0.0
 20
0.0
 30
0.0
  0
SPLINE
  5
9F
330
93
100
AcDbEntity
  8
cut
370
     0
100
AcDbSpline
210
0.0
220
0.0
230
1.0
 70
     8
 71
     3
 72
   107
 73
   103
 74
     0
 42
0.0000000001
 43
0.0000000001
 12
1.0
 22
0.0
 32
0.0
 13
1.0
 23
0.0
 33
0.0
 40
0.0
 40
0.0
 40
0.0
 40
0.0
 40
1.0
 40
1.0
 40
1.0
 40
2.0
 40
2.0
 40
2.0
 40
3.0
 40
3.0
 40
3.0
 40
4.0
 40
4.0
 40
4.0
 40
5.0
 40
5.0
 40
5.0
 40
6.0
 40
6.0
 40
6.0
 40
7.0
 40
7.0
 40
7.0
 40
8.0
 40
8.0
 40
8.0
 40
9.0
 40
9.0
 40
9.0
 40
10.0
 40
10.0
 40
10.0
 40
11.0
 40
11.0
 40
11.0
 40
12.0
 40
12.0
 40
12.0
 40
13.0
 40
13.0
 40
13.0
 40
14.0
 40
14.0
 40
14.0
 40
15.0
 40
15.0
 40
15.0
 40
16.0
 40
16.0
 40
16.0
 40
17.0
 40
17.0
 40
17.0
 40
18.0
 40
18.0
 40
18.0
 40
19.0
 40
19.0
 40
19.0
 40
20.0
 40
20.0
 40
20.0
 40
21.0
 40
21.0
 40
21.0
 40
22.0
 40
22.0
 40
22.0
 40
23.0
 40
23.0
 40
23.0
 40
24.0
 40
24.0
 40
24.0
 40
25.0
 40
25.0
 40
25.0
 40
26.0
 40
26.0
 40
26.0
 40
27.0
 40
27.0
 40
27.0
 40
28.0
 40
28.0
 40
28.0
 40
29.0
 40
29.0
 40
29.0
 40
30.0
 40
30.0
 40
30.0
 40
31.0
 40
31.0
 40
31.0
 40
32.0
 40
32.0
 40
32.0
 40
33.0
 40
33.0
 40
33.0
 40
34.0
 40
34.0
 40
34.0
 40
34.0
 10
548.582982937381
 20
-60.47730713291072
 30
0.0
 10
548.582982937381
 20
-60.47730713291072
 30
0.0
 10
548.582982937381
 20
-63.58726979981014
 30
0.0
 10
548.582982937381
 20
-63.58726979981014
 30
0.0
 10
548.582982937381
 20
-65.86056775844266
 30
0.0
 10
546.7396427536353
 20
-67.74212322448932
 30
0.0
 10
544.4664901575086
 20
-67.79036451066824
 30
0.0
 10
544.4664901575086
 20
-67.79036451066824
 30
0.0
 10
535.8690649499906
 20
-68.11962581934532
 30
0.0
 10
535.8690649499906
 20
-68.11962581934532
 30
0.0
 10
535.8690649499906
 20
-68.11962581934532
 30
0.0
 10
535.8690649499906
 20
-72.11962581834504
 30
0.0
 10
535.8690649499906
 20
-72.11962581834504
 30
0.0
 10
535.8690649499906
 20
-72.11962581834504
 30
0.0
 10
544.4664901575086
 20
-72.44598102544474
 30
0.0
 10
544.4664901575086
 20
-72.44598102544474
 30
0.0
 10
546.7410958043905
 20
-72.49146151512545
 30
0.0
 10
548.582982937381
 20
-74.37592308274982
 30
0.0
 10
548.582982937381
 20
-76.6490757363022
 30
0.0
 10
548.582982937381
 20
-76.6490757363022
 30
0.0
 10
548.582982937381
 20
-100.598824293197
 30
0.0
 10
548.582982937381
 20
-100.598824293197
 30
0.0
 10
548.582982937381
 20
-105.1480357018818
 30
0.0
 10
545.1362012490189
 20
-110.1514707870547
 30
0.0
 10
540.8848653593769
 20
-111.771913026407
 30
0.0
 10
540.8848653593769
 20
-111.771913026407
 30
0.0
 10
478.3994691844571
 20
-135.5855264841422
 30
0.0
 10
478.3994691844571
 20
-135.5855264841422
 30
0.0
 10
474.1481332948183
 20
-137.2059687234946
 30
0.0
 10
471.6862294060301
 20
-134.9668174583926
 30
0.0
 10
472.8993814787125
 20
-130.58209139897
 30
0.0
 10
472.8993814787125
 20
-130.58209139897
 30
0.0
 10
484.4216380253268
 20
-88.94593818962261
 30
0.0
 10
484.4216380253268
 20
-88.94593818962261
 30
0.0
 10
485.6362431487604
 20
-84.56135743527916
 30
0.0
 10
483.0111616605472
 20
-80.24187335625935
 30
0.0
 10
478.561200926192
 20
-79.29971522498708
 30
0.0
 10
478.561200926192
 20
-79.29971522498708
 30
0.0
 10
419.8915088324601
 20
-66.87496854255303
 30
0.0
 10
419.8915088324601
 20
-66.87496854255303
 30
0.0
 10
415.4400878542994
 20
-65.93281041128077
 30
0.0
 10
414.5986261639258
 20
-62.72578201594913
 30
0.0
 10
418.0070473124428
 20
-59.71477017198783
 30
0.0
 10
418.0070473124428
 20
-59.71477017198783
 30
0.0
 10
486.2266176692203
 20
0.4960218771053194
 30
0.0
 10
486.2266176692203
 20
0.4960218771053194
 30
0.0
 10
489.6350388177366
 20
3.507179026145151
 30
0.0
 10
489.3739255976358
 20
8.05217658754312
 30
0.0
 10
485.6391492502656
 20
10.64892365169794
 30
0.0
 10
485.6391492502656
 20
10.64892365169794
 30
0.0
 10
409.8193969361541
 20
63.37040132662477
 30
0.0
 10
409.8193969361541
 20
63.37040132662477
 30
0.0
 10
406.0831675380293
 20
65.96569533999298
 30
0.0
 10
406.5741587615816
 20
69.1767922775325
 30
0.0
 10
410.9163049486954
 20
70.53626659526526
 30
0.0
 10
410.9163049486954
 20
70.53626659526526
 30
0.0
 10
480.1746612879413
 20
92.24470007060167
 30
0.0
 10
480.1746612879413
 20
92.24470007060167
 30
0.0
 10
484.5153597988176
 20
93.6069351848352
 30
0.0
 10
486.6905767742742
 20
98.1435050516584
 30
0.0
 10
485.034680137514
 20
102.382054201756
 30
0.0
 10
485.034680137514
 20
102.382054201756
 30
0.0
 10
467.7101013287806
 20
146.6774356591644
 30
0.0
 10
467.7101013287806
 20
146.6774356591644
 30
0.0
 10
466.0542046920243
 20
150.9145317584748
 30
0.0
 10
468.2763552067618
 20
153.4105824029853
 30
0.0
 10
472.6766287984631
 20
152.2484323823313
 30
0.0
 10
472.6766287984631
 20
152.2484323823313
 30
0.0
 10
540.6180940020942
 20
134.3462654475108
 30
0.0
 10
540.6180940020942
 20
134.3462654475108
 30
0.0
 10
545.0183588330461
 20
133.1884745792224
 30
0.0
 10
548.582982937381
 20
128.5596359873281
 30
0.0
 10
548.582982937381
 20
124.0104245786456
 30
0.0
 10
548.582982937381
 20
124.0104245786456
 30
0.0
 10
548.582982937381
 20
101.1570854703133
 30
0.0
 10
548.582982937381
 20
101.1570854703133
 30
0.0
 10
548.582982937381
 20
98.8824797659721
 30
0.0
 10
546.7396427536353
 20
96.99947124913433
 30
0.0
 10
544.4664901575086
 20
96.9512299629567
 30
0.0
 10
544.4664901575086
 20
96.9512299629567
 30
0.0
 10
535.8690649499906
 20
96.62778085743247
 30
0.0
 10
535.8690649499906
 20
96.62778085743247
 30
0.0
 10
535.8690649499906
 20
96.62778085743247
 30
0.0
 10
535.8676118992008
 20
92.62778085843274
 30
0.0
 10
535.8676118992008
 20
92.62778085843274
 30
0.0
 10
535.8676118992008
 20
92.62778085843274
 30
0.0
 10
544.4664901575086
 20
92.30128034625356
 30
0.0
 10
544.4664901575086
 20
92.30128034625356
 30
0.0
 10
546.7410958043905
 20
92.25303906007495
 30
0.0
 10
548.582982937381
 20
90.37003054323847
 30
0.0
 10
548.582982937381
 20
88.09760441507939
 30
0.0
 10
548.582982937381
 20
88.09760441507939
 30
0.0
 10
548.582982937381
 20
85.31151168995406
 30
0.0
 10
548.582982937381
 20
85.31151168995406
 30
0.0
 10
548.582982937381
 20
85.31151168995406
 30
0.0
 10
548.5620016522809
 20
85.3115581466974
 30
0.0
 10
548.5620016522809
 20
85.3115581466974
 30
0.0
 10
507.7529188095453
 20
44.50822946098256
 30
0.0
 10
506.3344647199946
 20
-18.2228320341287
 30
0.0
 10
548.582982937381
 20
-60.47730713291072
 30
0.0
 10
548.582982937381
 20
-60.47730713291072
 30
0.0
 10
548.5831267397172
 20
-60.47746085707647
 30
0.0
 10
548.5831267397172
 20
-60.47746085707647
 30
0.0
  0
ENDBLK
  5
96
330
93
100
AcDbEntity
  8
0
100
AcDbBlockEnd
  0
BLOCK
  5
99
330
97
100
AcDbEntity
  8
0
100
AcDbBlockBegin
  2
block 14
 70
     0
 10
0.0
 20
0.0
 30
0.0
  3
block 14
  1

  0
SPLINE
  5
9B
330
97
100
AcDbEntity
  8
cut
370
     0
100
AcDbSpline
210
0.0
220
0.0
230
1.0
 70
    11
 71
     3
 72
    23
 73
    19
 74
     0
 42
0.0000000001
 43
0.0000000001
 12
1.0
 22
0.0
 32
0.0
 13
1.0
 23
0.0
 33
0.0
 40
0.0
 40
0.0
 40
0.0
 40
0.0
 40
1.0
 40
1.0
 40
1.0
 40
2.0
 40
2.0
 40
2.0
 40
3.0
 40
3.0
 40
3.0
 40
4.0
 40
4.0
 40
4.0
 40
5.0
 40
5.0
 40
5.0
 40
6.0
 40
6.0
 40
6.0
 40
6.0
 10
497.7474211650801
 20
-23.05633304885608
 30
0.0
 10
497.7474211650801
 20
-23.05633304885608
 30
0.0
 10
436.1062474769624
 20
-56.96748704614147
 30
0.0
 10
436.1062474769624
 20
-56.96748704614147
 30
0.0
 10
434.1126618454821
 20
-58.06584813717992
 30
0.0
 10
434.3381753221594
 20
-59.02791306425605
 30
0.0
 10
436.611473223364
 20
-59.11872873853766
 30
0.0
 10
436.611473223364
 20
-59.11872873853766
 30
0.0
 10
486.2734059034296
 20
-61.12524657239868
 30
0.0
 10
486.2734059034296
 20
-61.12524657239868
 30
0.0
 10
488.5481568553856
 20
-61.21882304317754
 30
0.0
 10
490.8752176344036
 20
-59.51599282411833
 30
0.0
 10
491.4740198492252
 20
-57.31941594711867
 30
0.0
 10
491.4740198492252
 20
-57.31941594711867
 30
0.0
 10
500.2703531854439
 20
-25.04294408691453
 30
0.0
 10
500.2703531854439
 20
-25.04294408691453
 30
0.0
 10
500.8706084510169
 20
-22.84927331149226
 30
0.0
 10
499.7396990508838
 20
-21.95811726289712
 30
0.0
 10
497.7474211650801
 20
-23.05633304885608
 30
0.0
  0
SPLINE
  5
9C
330
97
100
AcDbEntity
  8
cut
370
     0
100
AcDbSpline
210
0.0
220
0.0
230
1.0
 70
    11
 71
     3
 72
    23
 73
    19
 74
     0
 42
0.0000000001
 43
0.0000000001
 12
1.0
 22
0.0
 32
0.0
 13
1.0
 23
0.0
 33
0.0
 40
0.0
 40
0.0
 40
0.0
 40
0.0
 40
1.0
 40
1.0
 40
1.0
 40
2.0
 40
2.0
 40
2.0
 40
3.0
 40
3.0
 40
3.0
 40
4.0
 40
4.0
 40
4.0
 40
5.0
 40
5.0
 40
5.0
 40
6.0
 40
6.0
 40
6.0
 40
6.0
 10
427.0241365931709
 20
64.0319978329935
 30
0.0
 10
427.0241365931709
 20
64.0319978329935
 30
0.0
 10
496.090009699431
 20
24.79206489645775
 30
0.0
 10
496.090009699431
 20
24.79206489645775
 30
0.0
 10
497.6417200755852
 20
23.91037239202912
 30
0.0
 10
498.5956805646791
 20
24.60945708881783
 30
0.0
 10
498.2195221689315
 20
26.35266632866324
 30
0.0
 10
498.2195221689315
 20
26.35266632866324
 30
0.0
 10
490.4496855362843
 20
62.47025652683094
 30
0.0
 10
490.4496855362843
 20
62.47025652683094
 30
0.0
 10
490.0734193730289
 20
64.21449165323823
 30
0.0
 10
488.3223388272405
 20
65.62930320656172
 30
0.0
 10
486.5391200566135
 20
65.62930320656172
 30
0.0
 10
486.5391200566135
 20
65.62930320656172
 30
0.0
 10
427.4448640594433
 20
65.62827732000048
 30
0.0
 10
427.4448640594433
 20
65.62827732000048
 30
0.0
 10
425.6616452888131
 20
65.62930320656172
 30
0.0
 10
425.4723122296201
 20
64.91471622398079
 30
0.0
 10
427.0241365931709
 20
64.0319978329935
 30
0.0
  0
SPLINE
  5
9D
330
97
100
AcDbEntity
  8
cut
370
     0
100
AcDbSpline
210
0.0
220
0.0
230
1.0
 70
    11
 71
     3
 72
    23
 73
    19
 74
     0
 42
0.0000000001
 43
0.0000000001
 12
1.0
 22
0.0
 32
0.0
 13
1.0
 23
0.0
 33
0.0
 40
0.0
 40
0.0
 40
0.0
 40
0.0
 40
1.0
 40
1.0
 40
1.0
 40
2.0
 40
2.0
 40
2.0
 40
3.0
 40
3.0
 40
3.0
 40
4.0
 40
4.0
 40
4.0
 40
5.0
 40
5.0
 40
5.0
 40
6.0
 40
6.0
 40
6.0
 40
6.0
 10
527.8103146946089
 20
122.486319606571
 30
0.0
 10
527.8103146946089
 20
122.486319606571
 30
0.0
 10
479.6595547964234
 20
141.1802539160552
 30
0.0
 10
479.6595547964234
 20
141.1802539160552
 30
0.0
 10
477.5395537495378
 20
142.004714933458
 30
0.0
 10
476.912271739981
 20
141.1873738649184
 30
0.0
 10
478.2618724637603
 20
139.3553674307584
 30
0.0
 10
478.2618724637603
 20
139.3553674307584
 30
0.0
 10
498.9110242071277
 20
111.3188977714398
 30
0.0
 10
498.9110242071277
 20
111.3188977714398
 30
0.0
 10
500.2604724403316
 20
109.4897974388562
 30
0.0
 10
503.0501845787275
 20
108.7305784018565
 30
0.0
 10
505.1418590005011
 20
109.6259482977407
 30
0.0
 10
505.1418590005011
 20
109.6259482977407
 30
0.0
 10
527.86553062318
 20
119.3744660378878
 30
0.0
 10
527.86553062318
 20
119.3744660378878
 30
0.0
 10
529.9557441296537
 20
120.269835933771
 30
0.0
 10
529.9301704364236
 20
121.6647646907459
 30
0.0
 10
527.8103146946089
 20
122.486319606571
 30
0.0
  0
SPLINE
  5
9E
330
97
100
AcDbEntity
  8
cut
370
     0
100
AcDbSpline
210
0.0
220
0.0
230
1.0
 70
    11
 71
     3
 72
    23
 73
    19
 74
     0
 42
0.0000000001
 43
0.0000000001
 12
1.0
 22
0.0
 32
0.0
 13
1.0
 23
0.0
 33
0.0
 40
0.0
 40
0.0
 40
0.0
 40
0.0
 40
1.0
 40
1.0
 40
1.0
 40
2.0
 40
2.0
 40
2.0
 40
3.0
 40
3.0
 40
3.0
 40
4.0
 40
4.0
 40
4.0
 40
5.0
 40
5.0
 40
5.0
 40
6.0
 40
6.0
 40
6.0
 40
6.0
 10
487.8541798163225
 20
-121.9745091379639
 30
0.0
 10
487.8541798163225
 20
-121.9745091379639
 30
0.0
 10
513.6997388438043
 20
-110.8496616909354
 30
0.0
 10
513.6997388438043
 20
-110.8496616909354
 30
0.0
 10
515.7884992995299
 20
-109.9499326426882
 30
0.0
 10
516.8229342893711
 20
-107.4979094370686
 30
0.0
 10
516.0099442341027
 20
-105.3751475401273
 30
0.0
 10
516.0099442341027
 20
-105.3751475401273
 30
0.0
 10
510.1763813808197
 20
-90.14644875109225
 30
0.0
 10
510.1763813808197
 20
-90.14644875109225
 30
0.0
 10
509.3619464344306
 20
-88.02368685415097
 30
0.0
 10
507.687450748047
 20
-87.84205550558644
 30
0.0
 10
506.4330320340106
 20
-89.74061166586118
 30
0.0
 10
506.4330320340106
 20
-89.74061166586118
 30
0.0
 10
486.3386478821852
 20
-120.1667686519721
 30
0.0
 10
486.3386478821852
 20
-120.1667686519721
 30
0.0
 10
485.0856822189033
 20
-122.0653248122462
 30
0.0
 10
485.7639736848624
 20
-122.8742381862149
 30
0.0
 10
487.8541798163225
 20
-121.9745091379639
 30
0.0
  0
ENDBLK
  5
9A
330
97
100
AcDbEntity
  8
0
100
AcDbBlockEnd
  0
BLOCK
  5
A3
330
A1
100
AcDbEntity
  8
0
100
AcDbBlockBegin
  2
block 15
 70
     0
 10
0.0
 20
0.0
 30
0.0
  3
block 15
  1

  0
SPLINE
  5
A5
330
A1
100
AcDbEntity
  8
cut
370
     0
100
AcDbSpline
210
0.0
220
0.0
230
1.0
 70
    11
 71
     3
 72
   149
 73
   145
 74
     0
 42
0.0000000001
 43
0.0000000001
 12
1.0
 22
0.0
 32
0.0
 13
1.0
 23
0.0
 33
0.0
 40
0.0
 40
0.0
 40
0.0
 40
0.0
 40
1.0
 40
1.0
 40
1.0
 40
2.0
 40
2.0
 40
2.0
 40
3.0
 40
3.0
 40
3.0
 40
4.0
 40
4.0
 40
4.0
 40
5.0
 40
5.0
 40
5.0
 40
6.0
 40
6.0
 40
6.0
 40
7.0
 40
7.0
 40
7.0
 40
8.0
 40
8.0
 40
8.0
 40
9.0
 40
9.0
 40
9.0
 40
10.0
 40
10.0
 40
10.0
 40
11.0
 40
11.0
 40
11.0
 40
12.0
 40
12.0
 40
12.0
 40
13.0
 40
13.0
 40
13.0
 40
14.0
 40
14.0
 40
14.0
 40
15.0
 40
15.0
 40
15.0
 40
16.0
 40
16.0
 40
16.0
 40
17.0
 40
17.0
 40
17.0
 40
18.0
 40
18.0
 40
18.0
 40
19.0
 40
19.0
 40
19.0
 40
20.0
 40
20.0
 40
20.0
 40
21.0
 40
21.0
 40
21.0
 40
22.0
 40
22.0
 40
22.0
 40
23.0
 40
23.0
 40
23.0
 40
24.0
 40
24.0
 40
24.0
 40
25.0
 40
25.0
 40
25.0
 40
26.0
 40
26.0
 40
26.0
 40
27.0
 40
27.0
 40
27.0
 40
28.0
 40
28.0
 40
28.0
 40
29.0
 40
29.0
 40
29.0
 40
30.0
 40
30.0
 40
30.0
 40
31.0
 40
31.0
 40
31.0
 40
32.0
 40
32.0
 40
32.0
 40
33.0
 40
33.0
 40
33.0
 40
34.0
 40
34.0
 40
34.0
 40
35.0
 40
35.0
 40
35.0
 40
36.0
 40
36.0
 40
36.0
 40
37.0
 40
37.0
 40
37.0
 40
38.0
 40
38.0
 40
38.0
 40
39.0
 40
39.0
 40
39.0
 40
40.0
 40
40.0
 40
40.0
 40
41.0
 40
41.0
 40
41.0
 40
42.0
 40
42.0
 40
42.0
 40
43.0
 40
43.0
 40
43.0
 40
44.0
 40
44.0
 40
44.0
 40
45.0
 40
45.0
 40
45.0
 40
46.0
 40
46.0
 40
46.0
 40
47.0
 40
47.0
 40
47.0
 40
48.0
 40
48.0
 40
48.0
 40
48.0
 10
-27.1959386769416
 20
-259.7985689806032
 30
0.0
 10
-27.1959386769416
 20
-259.7985689806032
 30
0.0
 10
-19.25614387840217
 20
-259.7712769664616
 30
0.0
 10
-19.25614387840217
 20
-259.7712769664616
 30
0.0
 10
-19.25614387840217
 20
-259.7712769664616
 30
0.0
 10
-19.2442687009458
 20
-255.7712945949814
 30
0.0
 10
-19.2442687009458
 20
-255.7712945949814
 30
0.0
 10
-19.2442687009458
 20
-255.7712945949814
 30
0.0
 10
-27.4583939153806
 20
-255.6865024549496
 30
0.0
 10
-27.4583939153806
 20
-255.6865024549496
 30
0.0
 10
-29.73120817107306
 20
-255.632380257496
 30
0.0
 10
-32.43010423315874
 20
-249.3366880061822
 30
0.0
 10
-33.0139588206536
 20
-247.1392408682635
 30
0.0
 10
-33.0139588206536
 20
-247.1392408682635
 30
0.0
 10
-38.37252467459316
 20
-226.9026601290024
 30
0.0
 10
-38.37252467459316
 20
-226.9026601290024
 30
0.0
 10
-38.95522785065205
 20
-224.705882324368
 30
0.0
 10
-37.64448765746185
 20
-222.4510994257624
 30
0.0
 10
-35.44579641883023
 20
-221.8679958574351
 30
0.0
 10
-35.44579641883023
 20
-221.8679958574351
 30
0.0
 10
-15.20858770670631
 20
-216.5097946212895
 30
0.0
 10
-15.20858770670631
 20
-216.5097946212895
 30
0.0
 10
-13.00874505663969
 20
-215.9273603862484
 30
0.0
 10
-7.395249558148201
 20
-214.3393147407636
 30
0.0
 10
-6.222466489705452
 20
-216.2915330442036
 30
0.0
 10
-3.236457027664973
 20
-221.2575353106197
 30
0.0
 10
-1.340277047070303
 20
-224.3899492168019
 30
0.0
 10
-1.340277047070303
 20
-224.3899492168019
 30
0.0
 10
-1.340277047070303
 20
-224.3899492168019
 30
0.0
 10
2.12974689005092
 20
-222.4002422364125
 30
0.0
 10
2.12974689005092
 20
-222.4002422364125
 30
0.0
 10
2.12974689005092
 20
-222.4002422364125
 30
0.0
 10
-2.597761402756608
 20
-213.8739171754831
 30
0.0
 10
-2.597761402756608
 20
-213.8739171754831
 30
0.0
 10
-3.688871951360198
 20
-211.8772406181136
 30
0.0
 10
1.157933587333308
 20
-207.8034840967782
 30
0.0
 10
2.770483252002747
 20
-206.1984488056731
 30
0.0
 10
2.770483252002747
 20
-206.1984488056731
 30
0.0
 10
17.61516983462305
 20
-191.4420946674766
 30
0.0
 10
17.61516983462305
 20
-191.4420946674766
 30
0.0
 10
19.22771949929313
 20
-189.8370593763728
 30
0.0
 10
21.83616576777417
 20
-189.8449372945711
 30
0.0
 10
23.43994478699991
 20
-191.456756686123
 30
0.0
 10
23.43994478699991
 20
-191.456756686123
 30
0.0
 10
41.63536894248135
 20
-208.3023087767013
 30
0.0
 10
41.63536894248135
 20
-208.3023087767013
 30
0.0
 10
43.23841770364641
 20
-209.9153843846987
 30
0.0
 10
44.05129322547804
 20
-212.8764688415369
 30
0.0
 10
42.90717533651086
 20
-214.8446219991461
 30
0.0
 10
39.81985970357773
 20
-220.1555345109505
 30
0.0
 10
38.50258926582267
 20
-222.4215509734968
 30
0.0
 10
38.50258926582267
 20
-222.4215509734968
 30
0.0
 10
38.50258926582267
 20
-222.4215509734968
 30
0.0
 10
41.96073802548656
 20
-224.4318263645889
 30
0.0
 10
41.96073802548656
 20
-224.4318263645889
 30
0.0
 10
41.96073802548656
 20
-224.4318263645889
 30
0.0
 10
46.3653240961757
 20
-216.8548973902382
 30
0.0
 10
46.3653240961757
 20
-216.8548973902382
 30
0.0
 10
47.5481899749035
 20
-214.9131866913555
 30
0.0
 10
50.48732511446259
 20
-214.1292864441576
 30
0.0
 10
52.68297829190327
 20
-214.7229424063698
 30
0.0
 10
52.68297829190327
 20
-214.7229424063698
 30
0.0
 10
76.31886727832276
 20
-222.1960926660115
 30
0.0
 10
76.31886727832276
 20
-222.1960926660115
 30
0.0
 10
78.51564539827646
 20
-222.7935959555555
 30
0.0
 10
79.81275248940636
 20
-225.0543959195167
 30
0.0
 10
79.21786295231225
 20
-227.2493320649752
 30
0.0
 10
79.21786295231225
 20
-227.2493320649752
 30
0.0
 10
73.73942459275229
 20
-247.4537926975277
 30
0.0
 10
73.73942459275229
 20
-247.4537926975277
 30
0.0
 10
73.14503833169881
 20
-249.6507021318954
 30
0.0
 10
72.08753662898131
 20
-255.8574579779681
 30
0.0
 10
69.81296126640409
 20
-255.8991218830738
 30
0.0
 10
64.02035935449547
 20
-256.0014850660784
 30
0.0
 10
59.95229400176093
 20
-256.0110522309391
 30
0.0
 10
59.95229400176093
 20
-256.0110522309391
 30
0.0
 10
59.95229400176093
 20
-256.0110522309391
 30
0.0
 10
59.94041882430488
 20
-260.0110346024201
 30
0.0
 10
59.94041882430488
 20
-260.0110346024201
 30
0.0
 10
59.94041882430488
 20
-260.0110346024201
 30
0.0
 10
69.6961720122386
 20
-260.188495485788
 30
0.0
 10
69.6961720122386
 20
-260.188495485788
 30
0.0
 10
71.97036810598644
 20
-260.243420967087
 30
0.0
 10
73.09609878935863
 20
-265.9814386423295
 30
0.0
 10
73.67726586160977
 20
-268.180516866886
 30
0.0
 10
73.67726586160977
 20
-268.180516866886
 30
0.0
 10
79.03567088622646
 20
-288.4144830234378
 30
0.0
 10
79.03567088622646
 20
-288.4144830234378
 30
0.0
 10
79.61811716674427
 20
-290.6143048715553
 30
0.0
 10
78.30730394774778
 20
-292.8692133918068
 30
0.0
 10
76.10748211434282
 20
-293.4516597278954
 30
0.0
 10
76.10748211434282
 20
-293.4516597278954
 30
0.0
 10
55.87189474766248
 20
-298.80996311386
 30
0.0
 10
55.87189474766248
 20
-298.80996311386
 30
0.0
 10
53.67473961283958
 20
-299.3907662622633
 30
0.0
 10
47.01573575227801
 20
-300.0239314732715
 30
0.0
 10
45.84387897890002
 20
-298.0756130930041
 30
0.0
 10
42.85949946313588
 20
-293.1071968860645
 30
0.0
 10
41.68989067946037
 20
-291.0391197541767
 30
0.0
 10
41.68989067946037
 20
-291.0391197541767
 30
0.0
 10
41.68989067946037
 20
-291.0391197541767
 30
0.0
 10
38.2285304565873
 20
-293.0437859511804
 30
0.0
 10
38.2285304565873
 20
-293.0437859511804
 30
0.0
 10
38.2285304565873
 20
-293.0437859511804
 30
0.0
 10
42.28352698893681
 20
-300.2694581451472
 30
0.0
 10
42.28352698893681
 20
-300.2694581451472
 30
0.0
 10
43.37468134599019
 20
-302.2661601690444
 30
0.0
 10
39.50862179677292
 20
-307.513287842918
 30
0.0
 10
37.89295506285669
 20
-309.1181918601869
 30
0.0
 10
37.89295506285669
 20
-309.1181918601869
 30
0.0
 10
23.04949478315636
 20
-323.8750907945741
 30
0.0
 10
23.04949478315636
 20
-323.8750907945741
 30
0.0
 10
21.43652209943296
 20
-325.4781994513971
 30
0.0
 10
18.82975500428389
 20
-325.4729783893995
 30
0.0
 10
17.22469714843821
 20
-323.8604155903324
 30
0.0
 10
13.3119306514231
 20
-319.9214401648226
 30
0.0
 10
6.380256748341576
 20
-312.9506790267617
 30
0.0
 10
2.464700492982514
 20
-309.0136113977495
 30
0.0
 10
0.8623819898794259
 20
-307.399279573306
 30
0.0
 10
-3.290309747261725
 20
-302.3674208407977
 30
0.0
 10
-2.186883689480868
 20
-300.3761690911005
 30
0.0
 10
-2.186883689480868
 20
-300.3761690911005
 30
0.0
 10
2.164483413898818
 20
-292.8907893177238
 30
0.0
 10
2.164483413898818
 20
-292.8907893177238
 30
0.0
 10
2.164483413898818
 20
-292.8907893177238
 30
0.0
 10
-1.29366534576539
 20
-290.8805139266317
 30
0.0
 10
-1.29366534576539
 20
-290.8805139266317
 30
0.0
 10
-1.29366534576539
 20
-290.8805139266317
 30
0.0
 10
-5.645032449145075
 20
-298.3658937000084
 30
0.0
 10
-5.645032449145075
 20
-298.3658937000084
 30
0.0
 10
-6.829227570093212
 20
-300.3069997624945
 30
0.0
 10
-13.25535493656146
 20
-299.1924206168146
 30
0.0
 10
-15.45108113980939
 20
-298.5988902762469
 30
0.0
 10
-15.45108113980939
 20
-298.5988902762469
 30
0.0
 10
-35.65535593765607
 20
-293.1204223782066
 30
0.0
 10
-35.65535593765607
 20
-293.1204223782066
 30
0.0
 10
-37.849621624782
 20
-292.5243796047441
 30
0.0
 10
-39.14798493232787
 20
-290.2628493827418
 30
0.0
 10
-38.55194211814735
 20
-288.0685836550999
 30
0.0
 10
-37.1001730060274
 20
-282.7082847535316
 30
0.0
 10
-34.52762976837114
 20
-273.2232198957051
 30
0.0
 10
-33.07598627789285
 20
-267.8628479683323
 30
0.0
 10
-32.47987043790765
 20
-265.6684566190473
 30
0.0
 10
-29.47094359358638
 20
-259.8384705251984
 30
0.0
 10
-27.1959386769416
 20
-259.7985689806032
 30
0.0
  0
ENDBLK
  5
A4
330
A1
100
AcDbEntity
  8
0
100
AcDbBlockEnd
  0
ENDSEC
  0
SECTION
  2
ENTITIES
  0
INSERT
  5
42
330
1F
100
AcDbEntity
  8
cut
100
AcDbBlockReference
  2
block 2
 10
0.0
 20
0.0
 30
0.0
  0
INSERT
  5
47
330
1F
100
AcDbEntity
  8
cut
100
AcDbBlockReference
  2
block 3
 10
0.0
 20
0.0
 30
0.0
  0
INSERT
  5
58
330
1F
100
AcDbEntity
  8
cut
100
AcDbBlockReference
  2
block 5
 10
0.0
 20
0.0
 30
0.0
  0
INSERT
  5
65
330
1F
100
AcDbEntity
  8
cut
100
AcDbBlockReference
  2
block 7
 10
0.0
 20
0.0
 30
0.0
  0
INSERT
  5
76
330
1F
100
AcDbEntity
  8
cut
100
AcDbBlockReference
  2
block 9
 10
0.0
 20
0.0
 30
0.0
  0
INSERT
  5
83
330
1F
100
AcDbEntity
  8
cut
100
AcDbBlockReference
  2
block 11
 10
0.0
 20
0.0
 30
0.0
  0
INSERT
  5
94
330
1F
100
AcDbEntity
  8
cut
100
AcDbBlockReference
  2
block 13
 10
0.0
 20
0.0
 30
0.0
  0
SPLINE
  5
A0
330
1F
100
AcDbEntity
  8
cut
370
     0
100
AcDbSpline
210
0.0
220
0.0
230
1.0
 70
    11
 71
     3
 72
    17
 73
    13
 74
     0
 42
0.0000000001
 43
0.0000000001
 12
1.0
 22
0.0
 32
0.0
 13
1.0
 23
0.0
 33
0.0
 40
0.0
 40
0.0
 40
0.0
 40
0.0
 40
1.0
 40
1.0
 40
1.0
 40
2.0
 40
2.0
 40
2.0
 40
3.0
 40
3.0
 40
3.0
 40
4.0
 40
4.0
 40
4.0
 40
4.0
 10
-160.1152269407488
 20
-187.3507269156894
 30
0.0
 10
-167.0385521723207
 20
-183.3260908156213
 30
0.0
 10
-169.3884040018932
 20
-174.4510146007691
 30
0.0
 10
-165.3637679018247
 20
-167.5276893691972
 30
0.0
 10
-161.3391318017559
 20
-160.6043641376252
 30
0.0
 10
-152.4640555869041
 20
-158.2545123080524
 30
0.0
 10
-145.5407303553321
 20
-162.2791484081212
 30
0.0
 10
-138.6174051237608
 20
-166.3037845081901
 30
0.0
 10
-136.2675532941867
 20
-175.1788607230422
 30
0.0
 10
-140.2921893942562
 20
-182.1021859546142
 30
0.0
 10
-144.316825494325
 20
-189.0255111861855
 30
0.0
 10
-153.1919017091768
 20
-191.3753630157583
 30
0.0
 10
-160.1152269407488
 20
-187.3507269156894
 30
0.0
  0
INSERT
  5
A2
330
1F
100
AcDbEntity
  8
cut
100
AcDbBlockReference
  2
block 15
 10
0.0
 20
0.0
 30
0.0
  0
SPLINE
  5
A6
330
1F
100
AcDbEntity
  8
cut
370
     0
100
AcDbSpline
210
0.0
220
0.0
230
1.0
 70
    11
 71
     3
 72
    17
 73
    13
 74
     0
 42
0.0000000001
 43
0.0000000001
 12
1.0
 22
0.0
 32
0.0
 13
1.0
 23
0.0
 33
0.0
 40
0.0
 40
0.0
 40
0.0
 40
0.0
 40
1.0
 40
1.0
 40
1.0
 40
2.0
 40
2.0
 40
2.0
 40
3.0
 40
3.0
 40
3.0
 40
4.0
 40
4.0
 40
4.0
 40
4.0
 10
22.39100644493817
 20
-257.6590924723704
 30
0.0
 10
22.39100644493817
 20
-258.7956687704335
 30
0.0
 10
21.46860980438928
 20
-259.718065387681
 30
0.0
 10
20.33348652840066
 20
-259.718065387681
 30
0.0
 10
19.19545715083626
 20
-259.718065387681
 30
0.0
 10
18.2745135610759
 20
-258.7956687704335
 30
0.0
 10
18.2745135610759
 20
-257.6590924723704
 30
0.0
 10
18.2745135610759
 20
-256.5210631235548
 30
0.0
 10
19.19545715083626
 20
-255.5986665063073
 30
0.0
 10
20.33348652840066
 20
-255.5986665063073
 30
0.0
 10
21.46860980438928
 20
-255.5986665063073
 30
0.0
 10
22.39100644493817
 20
-256.5210631235548
 30
0.0
 10
22.39100644493817
 20
-257.6590924723704
 30
0.0
  0
ENDSEC
  0
SECTION
  2
OBJECTS
  0
DICTIONARY
  5
C
330
0
100
AcDbDictionary
281
     1
  3
ACAD_GROUP
350
D
  3
ACAD_LAYOUT
350
1A
  3
ACAD_MATERIAL
350
3B
  3
ACAD_MLEADERSTYLE
350
AC
  3
ACAD_MLINESTYLE
350
17
  3
ACAD_PLOTSETTINGS
350
19
  3
ACAD_PLOTSTYLENAME
350
E
  3
ACAD_TABLESTYLE
350
AB
  3
ACAD_VISUALSTYLE
350
2A
  0
SUN
  5
3F
330
29
100
AcDbSun
 90
        1
290
     0
 63
     7
421
 16777215
 40
1.0
291
     1
 91
  2455826
 92
 54000000
292
     0
 70
     2
 71
   256
280
     1
  0
DICTIONARY
  5
D
102
{ACAD_REACTORS
330
C
102
}
330
C
100
AcDbDictionary
281
     1
  0
DICTIONARY
  5
1A
102
{ACAD_REACTORS
330
C
102
}
330
C
100
AcDbDictionary
281
     1
  3
Layout1
350
1E
  3
Layout2
350
26
  3
Model
350
22
  0
DICTIONARY
  5
3B
102
{ACAD_REACTORS
330
C
102
}
330
C
100
AcDbDictionary
281
     1
  3
ByBlock
350
3D
  3
ByLayer
350
3C
  3
Global
350
3E
  0
DICTIONARY
  5
AC
102
{ACAD_REACTORS
330
C
102
}
330
C
100
AcDbDictionary
281
     1
  0
DICTIONARY
  5
17
102
{ACAD_REACTORS
330
C
102
}
330
C
100
AcDbDictionary
281
     1
  3
Standard
350
18
  0
DICTIONARY
  5
19
102
{ACAD_REACTORS
330
C
102
}
330
C
100
AcDbDictionary
281
     1
  0
ACDBDICTIONARYWDFLT
  5
E
102
{ACAD_REACTORS
330
C
102
}
330
C
100
AcDbDictionary
281
     1
  3
Normal
350
F
100
AcDbDictionaryWithDefault
340
F
  0
DICTIONARY
  5
AB
102
{ACAD_REACTORS
330
C
102
}
330
C
100
AcDbDictionary
281
     1
  0
DICTIONARY
  5
2A
102
{ACAD_REACTORS
330
C
102
}
330
C
100
AcDbDictionary
281
     1
  3
2dWireframe
350
2F
  3
3D Hidden
350
31
  3
3dWireframe
350
30
  3
Basic
350
32
  3
Brighten
350
36
  3
ColorChange
350
3A
  3
Conceptual
350
34
  3
Dim
350
35
  3
Facepattern
350
39
  3
Flat
350
2B
  3
FlatWithEdges
350
2C
  3
Gouraud
350
2D
  3
GouraudWithEdges
350
2E
  3
Linepattern
350
38
  3
Realistic
350
33
  3
Thicken
350
37
  0
LAYOUT
  5
1E
102
{ACAD_REACTORS
330
1A
102
}
330
1A
100
AcDbPlotSettings
  1

  2
none_device
  4

  6

 40
0.0
 41
0.0
 42
0.0
 43
0.0
 44
0.0
 45
0.0
 46
0.0
 47
0.0
 48
0.0
 49
0.0
140
0.0
141
0.0
142
1.0
143
1.0
 70
   688
 72
     0
 73
     0
 74
     5
  7

 75
    16
 76
     0
 77
     2
 78
   300
147
1.0
148
0.0
149
0.0
100
AcDbLayout
  1
Layout1
 70
     1
 71
     1
 10
0.0
 20
0.0
 11
12.0
 21
9.0
 12
0.0
 22
0.0
 32
0.0
 14
1.000000000000000E+20
 24
1.000000000000000E+20
 34
1.000000000000000E+20
 15
-1.000000000000000E+20
 25
-1.000000000000000E+20
 35
-1.000000000000000E+20
146
0.0
 13
0.0
 23
0.0
 33
0.0
 16
1.0
 26
0.0
 36
0.0
 17
0.0
 27
1.0
 37
0.0
 76
     0
330
1B
  0
LAYOUT
  5
26
102
{ACAD_REACTORS
330
1A
102
}
330
1A
100
AcDbPlotSettings
  1

  2
none_device
  4

  6

 40
0.0
 41
0.0
 42
0.0
 43
0.0
 44
0.0
 45
0.0
 46
0.0
 47
0.0
 48
0.0
 49
0.0
140
0.0
141
0.0
142
1.0
143
1.0
 70
   688
 72
     0
 73
     0
 74
     5
  7

 75
    16
 76
     0
 77
     2
 78
   300
147
1.0
148
0.0
149
0.0
100
AcDbLayout
  1
Layout2
 70
     1
 71
     2
 10
0.0
 20
0.0
 11
0.0
 21
0.0
 12
0.0
 22
0.0
 32
0.0
 14
0.0
 24
0.0
 34
0.0
 15
0.0
 25
0.0
 35
0.0
146
0.0
 13
0.0
 23
0.0
 33
0.0
 16
1.0
 26
0.0
 36
0.0
 17
0.0
 27
1.0
 37
0.0
 76
     0
330
23
  0
LAYOUT
  5
22
102
{ACAD_REACTORS
330
1A
102
}
330
1A
100
AcDbPlotSettings
  1

  2
none_device
  4

  6

 40
0.0
 41
0.0
 42
0.0
 43
0.0
 44
0.0
 45
0.0
 46
0.0
 47
0.0
 48
0.0
 49
0.0
140
0.0
141
0.0
142
1.0
143
1.0
 70
  1712
 72
     0
 73
     0
 74
     0
  7

 75
     0
 76
     0
 77
     2
 78
   300
147
1.0
148
0.0
149
0.0
100
AcDbLayout
  1
Model
 70
     1
 71
     0
 10
0.0
 20
0.0
 11
12.0
 21
9.0
 12
0.0
 22
0.0
 32
0.0
 14
1.000000000000000E+20
 24
1.000000000000000E+20
 34
1.000000000000000E+20
 15
-1.000000000000000E+20
 25
-1.000000000000000E+20
 35
-1.000000000000000E+20
146
0.0
 13
0.0
 23
0.0
 33
0.0
 16
1.0
 26
0.0
 36
0.0
 17
0.0
 27
1.0
 37
0.0
 76
     0
330
1F
331
29
  0
MATERIAL
  5
3D
102
{ACAD_REACTORS
330
3B
102
}
330
3B
100
AcDbMaterial
  1
ByBlock
 72
     1
 94
      127
  0
MATERIAL
  5
3C
102
{ACAD_REACTORS
330
3B
102
}
330
3B
100
AcDbMaterial
  1
ByLayer
 72
     1
 94
      127
  0
MATERIAL
  5
3E
102
{ACAD_REACTORS
330
3B
102
}
330
3B
100
AcDbMaterial
  1
Global
 72
     1
 94
      127
  0
MLINESTYLE
  5
18
102
{ACAD_REACTORS
330
17
102
}
330
17
100
AcDbMlineStyle
  2
Standard
 70
     0
  3

 62
   256
 51
90.0
 52
90.0
 71
     2
 49
0.5
 62
   256
  6
BYLAYER
 49
-0.5
 62
   256
  6
BYLAYER
  0
ACDBPLACEHOLDER
  5
F
102
{ACAD_REACTORS
330
E
102
}
330
E
  0
VISUALSTYLE
  5
2F
102
{ACAD_REACTORS
330
2A
102
}
330
2A
100
AcDbVisualStyle
  2
2dWireframe
 70
     4
177
     2
291
     0
 71
     0
176
     1
 72
     2
176
     1
 73
     0
176
     1
 90
        0
176
     1
 40
-0.6
176
     1
 41
-30.0
176
     1
 62
     5
 63
     7
421
 16777215
176
     1
 74
     1
176
     1
 91
        4
176
     1
 64
     7
176
     1
 65
   257
176
     1
 75
     1
176
     1
175
     1
176
     1
 42
1.0
176
     1
 92
        0
176
     1
 66
   257
176
     1
 43
1.0
176
     1
 76
     1
176
     1
 77
     6
176
     1
 78
     2
176
     1
 67
     7
176
     1
 79
     5
176
     1
170
     0
176
     1
171
     0
176
     1
290
     0
176
     1
 93
        1
176
     1
 44
0.0
176
     1
173
     0
176
     1
  0
VISUALSTYLE
  5
31
102
{ACAD_REACTORS
330
2A
102
}
330
2A
100
AcDbVisualStyle
  2
3D Hidden
 70
     6
177
     2
291
     0
 71
     1
176
     1
 72
     2
176
     1
 73
     2
176
     1
 90
        0
176
     1
 40
-0.6
176
     1
 41
-30.0
176
     1
 62
     5
 63
     7
421
 16777215
176
     1
 74
     2
176
     1
 91
        2
176
     1
 64
     7
176
     1
 65
   257
176
     1
 75
     2
176
     1
175
     1
176
     1
 42
40.0
176
     1
 92
        0
176
     1
 66
   257
176
     1
 43
1.0
176
     1
 76
     1
176
     1
 77
     6
176
     1
 78
     2
176
     1
 67
     7
176
     1
 79
     3
176
     1
170
     0
176
     1
171
     0
176
     1
290
     0
176
     1
 93
        1
176
     1
 44
0.0
176
     1
173
     0
176
     1
  0
VISUALSTYLE
  5
30
102
{ACAD_REACTORS
330
2A
102
}
330
2A
100
AcDbVisualStyle
  2
3dWireframe
 70
     5
177
     2
291
     0
 71
     0
176
     1
 72
     2
176
     1
 73
     0
176
     1
 90
        0
176
     1
 40
-0.6
176
     1
 41
-30.0
176
     1
 62
     5
 63
     7
421
 16777215
176
     1
 74
     1
176
     1
 91
        4
176
     1
 64
     7
176
     1
 65
   257
176
     1
 75
     1
176
     1
175
     1
176
     1
 42
1.0
176
     1
 92
        0
176
     1
 66
   257
176
     1
 43
1.0
176
     1
 76
     1
176
     1
 77
     6
176
     1
 78
     2
176
     1
 67
     7
176
     1
 79
     5
176
     1
170
     0
176
     1
171
     0
176
     1
290
     0
176
     1
 93
        1
176
     1
 44
0.0
176
     1
173
     0
176
     1
  0
VISUALSTYLE
  5
32
102
{ACAD_REACTORS
330
2A
102
}
330
2A
100
AcDbVisualStyle
  2
Basic
 70
     7
177
     2
291
     1
 71
     1
176
     1
 72
     0
176
     1
 73
     1
176
     1
 90
        0
176
     1
 40
-0.6
176
     1
 41
-30.0
176
     1
 62
     5
 63
     7
421
 16777215
176
     1
 74
     0
176
     1
 91
        4
176
     1
 64
     7
176
     1
 65
   257
176
     1
 75
     1
176
     1
175
     1
176
     1
 42
1.0
176
     1
 92
        8
176
     1
 66
     7
176
     1
 43
1.0
176
     1
 76
     1
176
     1
 77
     6
176
     1
 78
     2
176
     1
 67
     7
176
     1
 79
     5
176
     1
170
     0
176
     1
171
     0
176
     1
290
     0
176
     1
 93
        1
176
     1
 44
0.0
176
     1
173
     0
176
     1
  0
VISUALSTYLE
  5
36
102
{ACAD_REACTORS
330
2A
102
}
330
2A
100
AcDbVisualStyle
  2
Brighten
 70
    12
177
     2
291
     1
 71
     2
176
     1
 72
     2
176
     1
 73
     0
176
     1
 90
        0
176
     1
 40
-0.6
176
     1
 41
-30.0
176
     1
 62
     5
 63
     7
421
 16777215
176
     1
 74
     1
176
     1
 91
        4
176
     1
 64
     7
176
     1
 65
   257
176
     1
 75
     1
176
     1
175
     1
176
     1
 42
1.0
176
     1
 92
        8
176
     1
 66
     7
176
     1
 43
1.0
176
     1
 76
     1
176
     1
 77
     6
176
     1
 78
     2
176
     1
 67
     7
176
     1
 79
     5
176
     1
170
     0
176
     1
171
     0
176
     1
290
     0
176
     1
 93
        1
176
     1
 44
50.0
176
     1
173
     0
176
     1
  0
VISUALSTYLE
  5
3A
102
{ACAD_REACTORS
330
2A
102
}
330
2A
100
AcDbVisualStyle
  2
ColorChange
 70
    16
177
     2
291
     1
 71
     2
176
     1
 72
     2
176
     1
 73
     3
176
     1
 90
        0
176
     1
 40
-0.6
176
     1
 41
-30.0
176
     1
 62
     5
 63
     8
421
  8421504
176
     1
 74
     1
176
     1
 91
        4
176
     1
 64
     7
176
     1
 65
   257
176
     1
 75
     1
176
     1
175
     1
176
     1
 42
1.0
176
     1
 92
        8
176
     1
 66
     8
424
  8421504
176
     1
 43
1.0
176
     1
 76
     1
176
     1
 77
     6
176
     1
 78
     2
176
     1
 67
     7
176
     1
 79
     5
176
     1
170
     0
176
     1
171
     0
176
     1
290
     0
176
     1
 93
        1
176
     1
 44
0.0
176
     1
173
     0
176
     1
  0
VISUALSTYLE
  5
34
102
{ACAD_REACTORS
330
2A
102
}
330
2A
100
AcDbVisualStyle
  2
Conceptual
 70
     9
177
     2
291
     0
 71
     3
176
     1
 72
     2
176
     1
 73
     0
176
     1
 90
        0
176
     1
 40
-0.6
176
     1
 41
-30.0
176
     1
 62
     5
 63
     7
421
 16777215
176
     1
 74
     2
176
     1
 91
        2
176
     1
 64
     7
176
     1
 65
   257
176
     1
 75
     1
176
     1
175
     1
176
     1
 42
40.0
176
     1
 92
        8
176
     1
 66
     7
176
     1
 43
1.0
176
     1
 76
     1
176
     1
 77
     6
176
     1
 78
     2
176
     1
 67
     7
176
     1
 79
     3
176
     1
170
     0
176
     1
171
     0
176
     1
290
     0
176
     1
 93
        1
176
     1
 44
0.0
176
     1
173
     0
176
     1
  0
VISUALSTYLE
  5
35
102
{ACAD_REACTORS
330
2A
102
}
330
2A
100
AcDbVisualStyle
  2
Dim
 70
    11
177
     2
291
     1
 71
     2
176
     1
 72
     2
176
     1
 73
     0
176
     1
 90
        0
176
     1
 40
-0.6
176
     1
 41
-30.0
176
     1
 62
     5
 63
     7
421
 16777215
176
     1
 74
     1
176
     1
 91
        4
176
     1
 64
     7
176
     1
 65
   257
176
     1
 75
     1
176
     1
175
     1
176
     1
 42
1.0
176
     1
 92
        8
176
     1
 66
     7
176
     1
 43
1.0
176
     1
 76
     1
176
     1
 77
     6
176
     1
 78
     2
176
     1
 67
     7
176
     1
 79
     5
176
     1
170
     0
176
     1
171
     0
176
     1
290
     0
176
     1
 93
        1
176
     1
 44
-50.0
176
     1
173
     0
176
     1
  0
VISUALSTYLE
  5
39
102
{ACAD_REACTORS
330
2A
102
}
330
2A
100
AcDbVisualStyle
  2
Facepattern
 70
    15
177
     2
291
     1
 71
     2
176
     1
 72
     2
176
     1
 73
     0
176
     1
 90
        0
176
     1
 40
-0.6
176
     1
 41
-30.0
176
     1
 62
     5
 63
     7
421
 16777215
176
     1
 74
     1
176
     1
 91
        4
176
     1
 64
     7
176
     1
 65
   257
176
     1
 75
     1
176
     1
175
     1
176
     1
 42
1.0
176
     1
 92
        8
176
     1
 66
     7
176
     1
 43
1.0
176
     1
 76
     1
176
     1
 77
     6
176
     1
 78
     2
176
     1
 67
     7
176
     1
 79
     5
176
     1
170
     0
176
     1
171
     0
176
     1
290
     0
176
     1
 93
        1
176
     1
 44
0.0
176
     1
173
     0
176
     1
  0
VISUALSTYLE
  5
2B
102
{ACAD_REACTORS
330
2A
102
}
330
2A
100
AcDbVisualStyle
  2
Flat
 70
     0
177
     2
291
     1
 71
     2
176
     1
 72
     1
176
     1
 73
     1
176
     1
 90
        2
176
     1
 40
-0.6
176
     1
 41
30.0
176
     1
 62
     5
 63
     7
421
 16777215
176
     1
 74
     0
176
     1
 91
        4
176
     1
 64
     7
176
     1
 65
   257
176
     1
 75
     1
176
     1
175
     1
176
     1
 42
1.0
176
     1
 92
        8
176
     1
 66
     7
176
     1
 43
1.0
176
     1
 76
     1
176
     1
 77
     6
176
     1
 78
     2
176
     1
 67
     7
176
     1
 79
     5
176
     1
170
     0
176
     1
171
     0
176
     1
290
     0
176
     1
 93
       13
176
     1
 44
0.0
176
     1
173
     0
176
     1
  0
VISUALSTYLE
  5
2C
102
{ACAD_REACTORS
330
2A
102
}
330
2A
100
AcDbVisualStyle
  2
FlatWithEdges
 70
     1
177
     2
291
     1
 71
     2
176
     1
 72
     1
176
     1
 73
     1
176
     1
 90
        2
176
     1
 40
-0.6
176
     1
 41
30.0
176
     1
 62
     5
 63
     7
421
 16777215
176
     1
 74
     1
176
     1
 91
        4
176
     1
 64
     7
176
     1
 65
   257
176
     1
 75
     1
176
     1
175
     1
176
     1
 42
1.0
176
     1
 92
        0
176
     1
 66
   257
176
     1
 43
1.0
176
     1
 76
     1
176
     1
 77
     6
176
     1
 78
     2
176
     1
 67
     7
176
     1
 79
     5
176
     1
170
     0
176
     1
171
     0
176
     1
290
     0
176
     1
 93
       13
176
     1
 44
0.0
176
     1
173
     0
176
     1
  0
VISUALSTYLE
  5
2D
102
{ACAD_REACTORS
330
2A
102
}
330
2A
100
AcDbVisualStyle
  2
Gouraud
 70
     2
177
     2
291
     1
 71
     2
176
     1
 72
     2
176
     1
 73
     1
176
     1
 90
        2
176
     1
 40
-0.6
176
     1
 41
30.0
176
     1
 62
     5
 63
     7
421
 16777215
176
     1
 74
     0
176
     1
 91
        4
176
     1
 64
     7
176
     1
 65
   257
176
     1
 75
     1
176
     1
175
     1
176
     1
 42
1.0
176
     1
 92
        0
176
     1
 66
     7
176
     1
 43
1.0
176
     1
 76
     1
176
     1
 77
     6
176
     1
 78
     2
176
     1
 67
     7
176
     1
 79
     5
176
     1
170
     0
176
     1
171
     0
176
     1
290
     0
176
     1
 93
       13
176
     1
 44
0.0
176
     1
173
     0
176
     1
  0
VISUALSTYLE
  5
2E
102
{ACAD_REACTORS
330
2A
102
}
330
2A
100
AcDbVisualStyle
  2
GouraudWithEdges
 70
     3
177
     2
291
     1
 71
     2
176
     1
 72
     2
176
     1
 73
     1
176
     1
 90
        2
176
     1
 40
-0.6
176
     1
 41
30.0
176
     1
 62
     5
 63
     7
421
 16777215
176
     1
 74
     1
176
     1
 91
        4
176
     1
 64
     7
176
     1
 65
   257
176
     1
 75
     1
176
     1
175
     1
176
     1
 42
1.0
176
     1
 92
        0
176
     1
 66
   257
176
     1
 43
1.0
176
     1
 76
     1
176
     1
 77
     6
176
     1
 78
     2
176
     1
 67
     7
176
     1
 79
     5
176
     1
170
     0
176
     1
171
     0
176
     1
290
     0
176
     1
 93
       13
176
     1
 44
0.0
176
     1
173
     0
176
     1
  0
VISUALSTYLE
  5
38
102
{ACAD_REACTORS
330
2A
102
}
330
2A
100
AcDbVisualStyle
  2
Linepattern
 70
    14
177
     2
291
     1
 71
     2
176
     1
 72
     2
176
     1
 73
     0
176
     1
 90
        0
176
     1
 40
-0.6
176
     1
 41
-30.0
176
     1
 62
     5
 63
     7
421
 16777215
176
     1
 74
     1
176
     1
 91
        4
176
     1
 64
     7
176
     1
 65
   257
176
     1
 75
     7
176
     1
175
     7
176
     1
 42
1.0
176
     1
 92
        8
176
     1
 66
     7
176
     1
 43
1.0
176
     1
 76
     1
176
     1
 77
     6
176
     1
 78
     2
176
     1
 67
     7
176
     1
 79
     5
176
     1
170
     0
176
     1
171
     0
176
     1
290
     0
176
     1
 93
        1
176
     1
 44
0.0
176
     1
173
     0
176
     1
  0
VISUALSTYLE
  5
33
102
{ACAD_REACTORS
330
2A
102
}
330
2A
100
AcDbVisualStyle
  2
Realistic
 70
     8
177
     2
291
     0
 71
     2
176
     1
 72
     2
176
     1
 73
     0
176
     1
 90
        0
176
     1
 40
-0.6
176
     1
 41
-30.0
176
     1
 62
     5
 63
     7
421
 16777215
176
     1
 74
     1
176
     1
 91
        0
176
     1
 64
     7
176
     1
 65
   257
176
     1
 75
     1
176
     1
175
     1
176
     1
 42
1.0
176
     1
 92
        8
176
     1
 66
     8
424
  7895160
176
     1
 43
1.0
176
     1
 76
     1
176
     1
 77
     6
176
     1
 78
     2
176
     1
 67
     7
176
     1
 79
     5
176
     1
170
     0
176
     1
171
     0
176
     1
290
     0
176
     1
 93
       13
176
     1
 44
0.0
176
     1
173
     0
176
     1
  0
VISUALSTYLE
  5
37
102
{ACAD_REACTORS
330
2A
102
}
330
2A
100
AcDbVisualStyle
  2
Thicken
 70
    13
177
     2
291
     1
 71
     2
176
     1
 72
     2
176
     1
 73
     0
176
     1
 90
        0
176
     1
 40
-0.6
176
     1
 41
-30.0
176
     1
 62
     5
 63
     7
421
 16777215
176
     1
 74
     1
176
     1
 91
        4
176
     1
 64
     7
176
     1
 65
   257
176
     1
 75
     1
176
     1
175
     1
176
     1
 42
1.0
176
     1
 92
       12
176
     1
 66
     7
176
     1
 43
1.0
176
     1
 76
     1
176
     1
 77
     6
176
     1
 78
     2
176
     1
 67
     7
176
     1
 79
     5
176
     1
170
     0
176
     1
171
     0
176
     1
290
     0
176
     1
 93
        1
176
     1
 44
0.0
176
     1
173
     0
176
     1
  0
ENDSEC
  0
EOF
